<svg class="rich-terminal" viewBox="0 0 1238 977.1999999999999" xmlns="http://www.w3.org/2000/svg">
    <!-- Generated with Rich https://www.textualize.io -->
    <style>

    @font-face {
        font-family: "Fira Code";
        src: local("FiraCode-Regular"),
                url("https://cdnjs.cloudflare.com/ajax/libs/firacode/6.2.0/woff2/FiraCode-Regular.woff2") format("woff2"),
                url("https://cdnjs.cloudflare.com/ajax/libs/firacode/6.2.0/woff/FiraCode-Regular.woff") format("woff");
        font-style: normal;
        font-weight: 400;
    }
    @font-face {
        font-family: "Fira Code";
        src: local("FiraCode-Bold"),
                url("https://cdnjs.cloudflare.com/ajax/libs/firacode/6.2.0/woff2/FiraCode-Bold.woff2") format("woff2"),
                url("https://cdnjs.cloudflare.com/ajax/libs/firacode/6.2.0/woff/FiraCode-Bold.woff") format("woff");
        font-style: bold;
        font-weight: 700;
    }

    .terminal-2325414588-matrix {
        font-family: Fira Code, monospace;
        font-size: 20px;
        line-height: 24.4px;
        font-variant-east-asian: full-width;
    }

    .terminal-2325414588-title {
        font-size: 18px;
        font-weight: bold;
        font-family: arial;
    }

    .terminal-2325414588-r1 { fill: #c5c8c6 }
.terminal-2325414588-r2 { fill: #e9e5dc;font-weight: bold }
.terminal-2325414588-r3 { fill: #d9a24c;text-decoration: underline; }
.terminal-2325414588-r4 { fill: #e0e0e0 }
.terminal-2325414588-r5 { fill: #8a857a }
.terminal-2325414588-r6 { fill: #e0e0e0;font-weight: bold }
.terminal-2325414588-r7 { fill: #8a857a;font-style: italic; }
.terminal-2325414588-r8 { fill: #ffa62b;font-weight: bold }
.terminal-2325414588-r9 { fill: #424448 }
    </style>

    <defs>
    <clipPath id="terminal-2325414588-clip-terminal">
      <rect x="0" y="0" width="1219.0" height="926.1999999999999" />
    </clipPath>
    <clipPath id="terminal-2325414588-line-0">
    <rect x="0" y="1.5" width="1220" height="24.65"/>
            </clipPath>
<clipPath id="terminal-2325414588-line-1">
    <rect x="0" y="25.9" width="1220" height="24.65"/>
            </clipPath>
<clipPath id="terminal-2325414588-line-2">
    <rect x="0" y="50.3" width="1220" height="24.65"/>
            </clipPath>
<clipPath id="terminal-2325414588-line-3">
    <rect x="0" y="74.7" width="1220" height="24.65"/>
            </clipPath>
<clipPath id="terminal-2325414588-line-4">
    <rect x="0" y="99.1" width="1220" height="24.65"/>
            </clipPath>
<clipPath id="terminal-2325414588-line-5">
    <rect x="0" y="123.5" width="1220" height="24.65"/>
            </clipPath>
<clipPath id="terminal-2325414588-line-6">
    <rect x="0" y="147.9" width="1220" height="24.65"/>
            </clipPath>
<clipPath id="terminal-2325414588-line-7">
    <rect x="0" y="172.3" width="1220" height="24.65"/>
            </clipPath>
<clipPath id="terminal-2325414588-line-8">
    <rect x="0" y="196.7" width="1220" height="24.65"/>
            </clipPath>
<clipPath id="terminal-2325414588-line-9">
    <rect x="0" y="221.1" width="1220" height="24.65"/>
            </clipPath>
<clipPath id="terminal-2325414588-line-10">
    <rect x="0" y="245.5" width="1220" height="24.65"/>
            </clipPath>
<clipPath id="terminal-2325414588-line-11">
    <rect x="0" y="269.9" width="1220" height="24.65"/>
            </clipPath>
<clipPath id="terminal-2325414588-line-12">
    <rect x="0" y="294.3" width="1220" height="24.65"/>
            </clipPath>
<clipPath id="terminal-2325414588-line-13">
    <rect x="0" y="318.7" width="1220" height="24.65"/>
            </clipPath>
<clipPath id="terminal-2325414588-line-14">
    <rect x="0" y="343.1" width="1220" height="24.65"/>
            </clipPath>
<clipPath id="terminal-2325414588-line-15">
    <rect x="0" y="367.5" width="1220" height="24.65"/>
            </clipPath>
<clipPath id="terminal-2325414588-line-16">
    <rect x="0" y="391.9" width="1220" height="24.65"/>
            </clipPath>
<clipPath id="terminal-2325414588-line-17">
    <rect x="0" y="416.3" width="1220" height="24.65"/>
            </clipPath>
<clipPath id="terminal-2325414588-line-18">
    <rect x="0" y="440.7" width="1220" height="24.65"/>
            </clipPath>
<clipPath id="terminal-2325414588-line-19">
    <rect x="0" y="465.1" width="1220" height="24.65"/>
            </clipPath>
<clipPath id="terminal-2325414588-line-20">
    <rect x="0" y="489.5" width="1220" height="24.65"/>
            </clipPath>
<clipPath id="terminal-2325414588-line-21">
    <rect x="0" y="513.9" width="1220" height="24.65"/>
            </clipPath>
<clipPath id="terminal-2325414588-line-22">
    <rect x="0" y="538.3" width="1220" height="24.65"/>
            </clipPath>
<clipPath id="terminal-2325414588-line-23">
    <rect x="0" y="562.7" width="1220" height="24.65"/>
            </clipPath>
<clipPath id="terminal-2325414588-line-24">
    <rect x="0" y="587.1" width="1220" height="24.65"/>
            </clipPath>
<clipPath id="terminal-2325414588-line-25">
    <rect x="0" y="611.5" width="1220" height="24.65"/>
            </clipPath>
<clipPath id="terminal-2325414588-line-26">
    <rect x="0" y="635.9" width="1220" height="24.65"/>
            </clipPath>
<clipPath id="terminal-2325414588-line-27">
    <rect x="0" y="660.3" width="1220" height="24.65"/>
            </clipPath>
<clipPath id="terminal-2325414588-line-28">
    <rect x="0" y="684.7" width="1220" height="24.65"/>
            </clipPath>
<clipPath id="terminal-2325414588-line-29">
    <rect x="0" y="709.1" width="1220" height="24.65"/>
            </clipPath>
<clipPath id="terminal-2325414588-line-30">
    <rect x="0" y="733.5" width="1220" height="24.65"/>
            </clipPath>
<clipPath id="terminal-2325414588-line-31">
    <rect x="0" y="757.9" width="1220" height="24.65"/>
            </clipPath>
<clipPath id="terminal-2325414588-line-32">
    <rect x="0" y="782.3" width="1220" height="24.65"/>
            </clipPath>
<clipPath id="terminal-2325414588-line-33">
    <rect x="0" y="806.7" width="1220" height="24.65"/>
            </clipPath>
<clipPath id="terminal-2325414588-line-34">
    <rect x="0" y="831.1" width="1220" height="24.65"/>
            </clipPath>
<clipPath id="terminal-2325414588-line-35">
    <rect x="0" y="855.5" width="1220" height="24.65"/>
            </clipPath>
<clipPath id="terminal-2325414588-line-36">
    <rect x="0" y="879.9" width="1220" height="24.65"/>
            </clipPath>
    </defs>

    <rect fill="#292929" stroke="rgba(255,255,255,0.35)" stroke-width="1" x="1" y="1" width="1236" height="975.2" rx="8"/><text class="terminal-2325414588-title" fill="#c5c8c6" text-anchor="middle" x="618" y="27">razorbill</text>
            <g transform="translate(26,22)">
            <circle cx="0" cy="0" r="7" fill="#ff5f57"/>
            <circle cx="22" cy="0" r="7" fill="#febc2e"/>
            <circle cx="44" cy="0" r="7" fill="#28c840"/>
            </g>
        
    <g transform="translate(9, 41)" clip-path="url(#terminal-2325414588-clip-terminal)">
    <rect fill="#14151a" x="0" y="1.5" width="1146.8" height="24.65" shape-rendering="crispEdges"/><rect fill="#14151a" x="1146.8" y="1.5" width="73.2" height="24.65" shape-rendering="crispEdges"/><rect fill="#14151a" x="0" y="25.9" width="36.6" height="24.65" shape-rendering="crispEdges"/><rect fill="#14151a" x="36.6" y="25.9" width="24.4" height="24.65" shape-rendering="crispEdges"/><rect fill="#14151a" x="61" y="25.9" width="1024.8" height="24.65" shape-rendering="crispEdges"/><rect fill="#14151a" x="1085.8" y="25.9" width="24.4" height="24.65" shape-rendering="crispEdges"/><rect fill="#14151a" x="1110.2" y="25.9" width="36.6" height="24.65" shape-rendering="crispEdges"/><rect fill="#14151a" x="1146.8" y="25.9" width="73.2" height="24.65" shape-rendering="crispEdges"/><rect fill="#14151a" x="0" y="50.3" width="36.6" height="24.65" shape-rendering="crispEdges"/><rect fill="#14151a" x="36.6" y="50.3" width="24.4" height="24.65" shape-rendering="crispEdges"/><rect fill="#14151a" x="61" y="50.3" width="1024.8" height="24.65" shape-rendering="crispEdges"/><rect fill="#14151a" x="1085.8" y="50.3" width="24.4" height="24.65" shape-rendering="crispEdges"/><rect fill="#14151a" x="1110.2" y="50.3" width="36.6" height="24.65" shape-rendering="crispEdges"/><rect fill="#14151a" x="1146.8" y="50.3" width="73.2" height="24.65" shape-rendering="crispEdges"/><rect fill="#14151a" x="0" y="74.7" width="36.6" height="24.65" shape-rendering="crispEdges"/><rect fill="#14151a" x="36.6" y="74.7" width="24.4" height="24.65" shape-rendering="crispEdges"/><rect fill="#14151a" x="61" y="74.7" width="329.4" height="24.65" shape-rendering="crispEdges"/><rect fill="#14151a" x="390.4" y="74.7" width="353.8" height="24.65" shape-rendering="crispEdges"/><rect fill="#14151a" x="744.2" y="74.7" width="341.6" height="24.65" shape-rendering="crispEdges"/><rect fill="#14151a" x="1085.8" y="74.7" width="24.4" height="24.65" shape-rendering="crispEdges"/><rect fill="#14151a" x="1110.2" y="74.7" width="36.6" height="24.65" shape-rendering="crispEdges"/><rect fill="#14151a" x="1146.8" y="74.7" width="73.2" height="24.65" shape-rendering="crispEdges"/><rect fill="#14151a" x="0" y="99.1" width="36.6" height="24.65" shape-rendering="crispEdges"/><rect fill="#14151a" x="36.6" y="99.1" width="24.4" height="24.65" shape-rendering="crispEdges"/><rect fill="#14151a" x="61" y="99.1" width="1024.8" height="24.65" shape-rendering="crispEdges"/><rect fill="#14151a" x="1085.8" y="99.1" width="24.4" height="24.65" shape-rendering="crispEdges"/><rect fill="#14151a" x="1110.2" y="99.1" width="36.6" height="24.65" shape-rendering="crispEdges"/><rect fill="#14151a" x="1146.8" y="99.1" width="73.2" height="24.65" shape-rendering="crispEdges"/><rect fill="#14151a" x="0" y="123.5" width="36.6" height="24.65" shape-rendering="crispEdges"/><rect fill="#14151a" x="36.6" y="123.5" width="24.4" height="24.65" shape-rendering="crispEdges"/><rect fill="#14151a" x="61" y="123.5" width="1024.8" height="24.65" shape-rendering="crispEdges"/><rect fill="#14151a" x="1085.8" y="123.5" width="24.4" height="24.65" shape-rendering="crispEdges"/><rect fill="#14151a" x="1110.2" y="123.5" width="36.6" height="24.65" shape-rendering="crispEdges"/><rect fill="#14151a" x="1146.8" y="123.5" width="73.2" height="24.65" shape-rendering="crispEdges"/><rect fill="#14151a" x="0" y="147.9" width="36.6" height="24.65" shape-rendering="crispEdges"/><rect fill="#14151a" x="36.6" y="147.9" width="24.4" height="24.65" shape-rendering="crispEdges"/><rect fill="#14151a" x="61" y="147.9" width="85.4" height="24.65" shape-rendering="crispEdges"/><rect fill="#14151a" x="146.4" y="147.9" width="939.4" height="24.65" shape-rendering="crispEdges"/><rect fill="#14151a" x="1085.8" y="147.9" width="24.4" height="24.65" shape-rendering="crispEdges"/><rect fill="#14151a" x="1110.2" y="147.9" width="36.6" height="24.65" shape-rendering="crispEdges"/><rect fill="#14151a" x="1146.8" y="147.9" width="73.2" height="24.65" shape-rendering="crispEdges"/><rect fill="#14151a" x="0" y="172.3" width="36.6" height="24.65" shape-rendering="crispEdges"/><rect fill="#14151a" x="36.6" y="172.3" width="24.4" height="24.65" shape-rendering="crispEdges"/><rect fill="#14151a" x="61" y="172.3" width="1024.8" height="24.65" shape-rendering="crispEdges"/><rect fill="#14151a" x="1085.8" y="172.3" width="24.4" height="24.65" shape-rendering="crispEdges"/><rect fill="#14151a" x="1110.2" y="172.3" width="36.6" height="24.65" shape-rendering="crispEdges"/><rect fill="#14151a" x="1146.8" y="172.3" width="73.2" height="24.65" shape-rendering="crispEdges"/><rect fill="#14151a" x="0" y="196.7" width="36.6" height="24.65" shape-rendering="crispEdges"/><rect fill="#14151a" x="36.6" y="196.7" width="24.4" height="24.65" shape-rendering="crispEdges"/><rect fill="#14151a" x="61" y="196.7" width="1012.6" height="24.65" shape-rendering="crispEdges"/><rect fill="#14151a" x="1073.6" y="196.7" width="12.2" height="24.65" shape-rendering="crispEdges"/><rect fill="#14151a" x="1085.8" y="196.7" width="24.4" height="24.65" shape-rendering="crispEdges"/><rect fill="#14151a" x="1110.2" y="196.7" width="36.6" height="24.65" shape-rendering="crispEdges"/><rect fill="#14151a" x="1146.8" y="196.7" width="73.2" height="24.65" shape-rendering="crispEdges"/><rect fill="#14151a" x="0" y="221.1" width="36.6" height="24.65" shape-rendering="crispEdges"/><rect fill="#14151a" x="36.6" y="221.1" width="24.4" height="24.65" shape-rendering="crispEdges"/><rect fill="#14151a" x="61" y="221.1" width="195.2" height="24.65" shape-rendering="crispEdges"/><rect fill="#14151a" x="256.2" y="221.1" width="829.6" height="24.65" shape-rendering="crispEdges"/><rect fill="#14151a" x="1085.8" y="221.1" width="24.4" height="24.65" shape-rendering="crispEdges"/><rect fill="#14151a" x="1110.2" y="221.1" width="36.6" height="24.65" shape-rendering="crispEdges"/><rect fill="#14151a" x="1146.8" y="221.1" width="73.2" height="24.65" shape-rendering="crispEdges"/><rect fill="#14151a" x="0" y="245.5" width="36.6" height="24.65" shape-rendering="crispEdges"/><rect fill="#14151a" x="36.6" y="245.5" width="24.4" height="24.65" shape-rendering="crispEdges"/><rect fill="#14151a" x="61" y="245.5" width="1024.8" height="24.65" shape-rendering="crispEdges"/><rect fill="#14151a" x="1085.8" y="245.5" width="24.4" height="24.65" shape-rendering="crispEdges"/><rect fill="#14151a" x="1110.2" y="245.5" width="36.6" height="24.65" shape-rendering="crispEdges"/><rect fill="#14151a" x="1146.8" y="245.5" width="73.2" height="24.65" shape-rendering="crispEdges"/><rect fill="#14151a" x="0" y="269.9" width="36.6" height="24.65" shape-rendering="crispEdges"/><rect fill="#14151a" x="36.6" y="269.9" width="24.4" height="24.65" shape-rendering="crispEdges"/><rect fill="#14151a" x="61" y="269.9" width="1024.8" height="24.65" shape-rendering="crispEdges"/><rect fill="#14151a" x="1085.8" y="269.9" width="24.4" height="24.65" shape-rendering="crispEdges"/><rect fill="#14151a" x="1110.2" y="269.9" width="36.6" height="24.65" shape-rendering="crispEdges"/><rect fill="#14151a" x="1146.8" y="269.9" width="73.2" height="24.65" shape-rendering="crispEdges"/><rect fill="#14151a" x="0" y="294.3" width="36.6" height="24.65" shape-rendering="crispEdges"/><rect fill="#14151a" x="36.6" y="294.3" width="24.4" height="24.65" shape-rendering="crispEdges"/><rect fill="#14151a" x="61" y="294.3" width="109.8" height="24.65" shape-rendering="crispEdges"/><rect fill="#14151a" x="170.8" y="294.3" width="915" height="24.65" shape-rendering="crispEdges"/><rect fill="#14151a" x="1085.8" y="294.3" width="24.4" height="24.65" shape-rendering="crispEdges"/><rect fill="#14151a" x="1110.2" y="294.3" width="36.6" height="24.65" shape-rendering="crispEdges"/><rect fill="#14151a" x="1146.8" y="294.3" width="73.2" height="24.65" shape-rendering="crispEdges"/><rect fill="#14151a" x="0" y="318.7" width="36.6" height="24.65" shape-rendering="crispEdges"/><rect fill="#14151a" x="36.6" y="318.7" width="24.4" height="24.65" shape-rendering="crispEdges"/><rect fill="#14151a" x="61" y="318.7" width="1024.8" height="24.65" shape-rendering="crispEdges"/><rect fill="#14151a" x="1085.8" y="318.7" width="24.4" height="24.65" shape-rendering="crispEdges"/><rect fill="#14151a" x="1110.2" y="318.7" width="36.6" height="24.65" shape-rendering="crispEdges"/><rect fill="#14151a" x="1146.8" y="318.7" width="73.2" height="24.65" shape-rendering="crispEdges"/><rect fill="#14151a" x="0" y="343.1" width="36.6" height="24.65" shape-rendering="crispEdges"/><rect fill="#14151a" x="36.6" y="343.1" width="24.4" height="24.65" shape-rendering="crispEdges"/><rect fill="#14151a" x="61" y="343.1" width="24.4" height="24.65" shape-rendering="crispEdges"/><rect fill="#14151a" x="85.4" y="343.1" width="634.4" height="24.65" shape-rendering="crispEdges"/><rect fill="#14151a" x="719.8" y="343.1" width="366" height="24.65" shape-rendering="crispEdges"/><rect fill="#14151a" x="1085.8" y="343.1" width="24.4" height="24.65" shape-rendering="crispEdges"/><rect fill="#14151a" x="1110.2" y="343.1" width="36.6" height="24.65" shape-rendering="crispEdges"/><rect fill="#14151a" x="1146.8" y="343.1" width="73.2" height="24.65" shape-rendering="crispEdges"/><rect fill="#14151a" x="0" y="367.5" width="36.6" height="24.65" shape-rendering="crispEdges"/><rect fill="#14151a" x="36.6" y="367.5" width="24.4" height="24.65" shape-rendering="crispEdges"/><rect fill="#14151a" x="61" y="367.5" width="1024.8" height="24.65" shape-rendering="crispEdges"/><rect fill="#14151a" x="1085.8" y="367.5" width="24.4" height="24.65" shape-rendering="crispEdges"/><rect fill="#14151a" x="1110.2" y="367.5" width="36.6" height="24.65" shape-rendering="crispEdges"/><rect fill="#14151a" x="1146.8" y="367.5" width="73.2" height="24.65" shape-rendering="crispEdges"/><rect fill="#14151a" x="0" y="391.9" width="36.6" height="24.65" shape-rendering="crispEdges"/><rect fill="#14151a" x="36.6" y="391.9" width="24.4" height="24.65" shape-rendering="crispEdges"/><rect fill="#14151a" x="61" y="391.9" width="1024.8" height="24.65" shape-rendering="crispEdges"/><rect fill="#14151a" x="1085.8" y="391.9" width="24.4" height="24.65" shape-rendering="crispEdges"/><rect fill="#14151a" x="1110.2" y="391.9" width="36.6" height="24.65" shape-rendering="crispEdges"/><rect fill="#14151a" x="1146.8" y="391.9" width="73.2" height="24.65" shape-rendering="crispEdges"/><rect fill="#14151a" x="0" y="416.3" width="36.6" height="24.65" shape-rendering="crispEdges"/><rect fill="#14151a" x="36.6" y="416.3" width="24.4" height="24.65" shape-rendering="crispEdges"/><rect fill="#14151a" x="61" y="416.3" width="146.4" height="24.65" shape-rendering="crispEdges"/><rect fill="#14151a" x="207.4" y="416.3" width="878.4" height="24.65" shape-rendering="crispEdges"/><rect fill="#14151a" x="1085.8" y="416.3" width="24.4" height="24.65" shape-rendering="crispEdges"/><rect fill="#14151a" x="1110.2" y="416.3" width="36.6" height="24.65" shape-rendering="crispEdges"/><rect fill="#14151a" x="1146.8" y="416.3" width="73.2" height="24.65" shape-rendering="crispEdges"/><rect fill="#14151a" x="0" y="440.7" width="36.6" height="24.65" shape-rendering="crispEdges"/><rect fill="#14151a" x="36.6" y="440.7" width="24.4" height="24.65" shape-rendering="crispEdges"/><rect fill="#14151a" x="61" y="440.7" width="1024.8" height="24.65" shape-rendering="crispEdges"/><rect fill="#14151a" x="1085.8" y="440.7" width="24.4" height="24.65" shape-rendering="crispEdges"/><rect fill="#14151a" x="1110.2" y="440.7" width="36.6" height="24.65" shape-rendering="crispEdges"/><rect fill="#14151a" x="1146.8" y="440.7" width="73.2" height="24.65" shape-rendering="crispEdges"/><rect fill="#14151a" x="0" y="465.1" width="36.6" height="24.65" shape-rendering="crispEdges"/><rect fill="#14151a" x="36.6" y="465.1" width="24.4" height="24.65" shape-rendering="crispEdges"/><rect fill="#14151a" x="61" y="465.1" width="24.4" height="24.65" shape-rendering="crispEdges"/><rect fill="#14151a" x="85.4" y="465.1" width="536.8" height="24.65" shape-rendering="crispEdges"/><rect fill="#14151a" x="622.2" y="465.1" width="463.6" height="24.65" shape-rendering="crispEdges"/><rect fill="#14151a" x="1085.8" y="465.1" width="24.4" height="24.65" shape-rendering="crispEdges"/><rect fill="#14151a" x="1110.2" y="465.1" width="36.6" height="24.65" shape-rendering="crispEdges"/><rect fill="#14151a" x="1146.8" y="465.1" width="73.2" height="24.65" shape-rendering="crispEdges"/><rect fill="#14151a" x="0" y="489.5" width="36.6" height="24.65" shape-rendering="crispEdges"/><rect fill="#14151a" x="36.6" y="489.5" width="24.4" height="24.65" shape-rendering="crispEdges"/><rect fill="#14151a" x="61" y="489.5" width="24.4" height="24.65" shape-rendering="crispEdges"/><rect fill="#14151a" x="85.4" y="489.5" width="488" height="24.65" shape-rendering="crispEdges"/><rect fill="#14151a" x="573.4" y="489.5" width="512.4" height="24.65" shape-rendering="crispEdges"/><rect fill="#14151a" x="1085.8" y="489.5" width="24.4" height="24.65" shape-rendering="crispEdges"/><rect fill="#14151a" x="1110.2" y="489.5" width="36.6" height="24.65" shape-rendering="crispEdges"/><rect fill="#14151a" x="1146.8" y="489.5" width="73.2" height="24.65" shape-rendering="crispEdges"/><rect fill="#14151a" x="0" y="513.9" width="36.6" height="24.65" shape-rendering="crispEdges"/><rect fill="#14151a" x="36.6" y="513.9" width="24.4" height="24.65" shape-rendering="crispEdges"/><rect fill="#14151a" x="61" y="513.9" width="1024.8" height="24.65" shape-rendering="crispEdges"/><rect fill="#14151a" x="1085.8" y="513.9" width="24.4" height="24.65" shape-rendering="crispEdges"/><rect fill="#14151a" x="1110.2" y="513.9" width="36.6" height="24.65" shape-rendering="crispEdges"/><rect fill="#14151a" x="1146.8" y="513.9" width="73.2" height="24.65" shape-rendering="crispEdges"/><rect fill="#14151a" x="0" y="538.3" width="36.6" height="24.65" shape-rendering="crispEdges"/><rect fill="#14151a" x="36.6" y="538.3" width="24.4" height="24.65" shape-rendering="crispEdges"/><rect fill="#14151a" x="61" y="538.3" width="1024.8" height="24.65" shape-rendering="crispEdges"/><rect fill="#14151a" x="1085.8" y="538.3" width="24.4" height="24.65" shape-rendering="crispEdges"/><rect fill="#14151a" x="1110.2" y="538.3" width="36.6" height="24.65" shape-rendering="crispEdges"/><rect fill="#14151a" x="1146.8" y="538.3" width="73.2" height="24.65" shape-rendering="crispEdges"/><rect fill="#14151a" x="0" y="562.7" width="36.6" height="24.65" shape-rendering="crispEdges"/><rect fill="#14151a" x="36.6" y="562.7" width="24.4" height="24.65" shape-rendering="crispEdges"/><rect fill="#14151a" x="61" y="562.7" width="122" height="24.65" shape-rendering="crispEdges"/><rect fill="#14151a" x="183" y="562.7" width="902.8" height="24.65" shape-rendering="crispEdges"/><rect fill="#14151a" x="1085.8" y="562.7" width="24.4" height="24.65" shape-rendering="crispEdges"/><rect fill="#14151a" x="1110.2" y="562.7" width="36.6" height="24.65" shape-rendering="crispEdges"/><rect fill="#14151a" x="1146.8" y="562.7" width="73.2" height="24.65" shape-rendering="crispEdges"/><rect fill="#14151a" x="0" y="587.1" width="36.6" height="24.65" shape-rendering="crispEdges"/><rect fill="#14151a" x="36.6" y="587.1" width="24.4" height="24.65" shape-rendering="crispEdges"/><rect fill="#14151a" x="61" y="587.1" width="1024.8" height="24.65" shape-rendering="crispEdges"/><rect fill="#14151a" x="1085.8" y="587.1" width="24.4" height="24.65" shape-rendering="crispEdges"/><rect fill="#14151a" x="1110.2" y="587.1" width="36.6" height="24.65" shape-rendering="crispEdges"/><rect fill="#14151a" x="1146.8" y="587.1" width="73.2" height="24.65" shape-rendering="crispEdges"/><rect fill="#14151a" x="0" y="611.5" width="36.6" height="24.65" shape-rendering="crispEdges"/><rect fill="#14151a" x="36.6" y="611.5" width="24.4" height="24.65" shape-rendering="crispEdges"/><rect fill="#14151a" x="61" y="611.5" width="170.8" height="24.65" shape-rendering="crispEdges"/><rect fill="#14151a" x="231.8" y="611.5" width="305" height="24.65" shape-rendering="crispEdges"/><rect fill="#14151a" x="536.8" y="611.5" width="549" height="24.65" shape-rendering="crispEdges"/><rect fill="#14151a" x="1085.8" y="611.5" width="24.4" height="24.65" shape-rendering="crispEdges"/><rect fill="#14151a" x="1110.2" y="611.5" width="36.6" height="24.65" shape-rendering="crispEdges"/><rect fill="#14151a" x="1146.8" y="611.5" width="73.2" height="24.65" shape-rendering="crispEdges"/><rect fill="#14151a" x="0" y="635.9" width="36.6" height="24.65" shape-rendering="crispEdges"/><rect fill="#14151a" x="36.6" y="635.9" width="24.4" height="24.65" shape-rendering="crispEdges"/><rect fill="#14151a" x="61" y="635.9" width="1024.8" height="24.65" shape-rendering="crispEdges"/><rect fill="#14151a" x="1085.8" y="635.9" width="24.4" height="24.65" shape-rendering="crispEdges"/><rect fill="#14151a" x="1110.2" y="635.9" width="36.6" height="24.65" shape-rendering="crispEdges"/><rect fill="#14151a" x="1146.8" y="635.9" width="73.2" height="24.65" shape-rendering="crispEdges"/><rect fill="#14151a" x="0" y="660.3" width="36.6" height="24.65" shape-rendering="crispEdges"/><rect fill="#14151a" x="36.6" y="660.3" width="24.4" height="24.65" shape-rendering="crispEdges"/><rect fill="#14151a" x="61" y="660.3" width="195.2" height="24.65" shape-rendering="crispEdges"/><rect fill="#14151a" x="256.2" y="660.3" width="305" height="24.65" shape-rendering="crispEdges"/><rect fill="#14151a" x="561.2" y="660.3" width="524.6" height="24.65" shape-rendering="crispEdges"/><rect fill="#14151a" x="1085.8" y="660.3" width="24.4" height="24.65" shape-rendering="crispEdges"/><rect fill="#14151a" x="1110.2" y="660.3" width="36.6" height="24.65" shape-rendering="crispEdges"/><rect fill="#14151a" x="1146.8" y="660.3" width="73.2" height="24.65" shape-rendering="crispEdges"/><rect fill="#14151a" x="0" y="684.7" width="36.6" height="24.65" shape-rendering="crispEdges"/><rect fill="#14151a" x="36.6" y="684.7" width="24.4" height="24.65" shape-rendering="crispEdges"/><rect fill="#14151a" x="61" y="684.7" width="1024.8" height="24.65" shape-rendering="crispEdges"/><rect fill="#14151a" x="1085.8" y="684.7" width="24.4" height="24.65" shape-rendering="crispEdges"/><rect fill="#14151a" x="1110.2" y="684.7" width="36.6" height="24.65" shape-rendering="crispEdges"/><rect fill="#14151a" x="1146.8" y="684.7" width="73.2" height="24.65" shape-rendering="crispEdges"/><rect fill="#14151a" x="0" y="709.1" width="36.6" height="24.65" shape-rendering="crispEdges"/><rect fill="#14151a" x="36.6" y="709.1" width="1073.6" height="24.65" shape-rendering="crispEdges"/><rect fill="#14151a" x="1110.2" y="709.1" width="36.6" height="24.65" shape-rendering="crispEdges"/><rect fill="#14151a" x="1146.8" y="709.1" width="73.2" height="24.65" shape-rendering="crispEdges"/><rect fill="#14151a" x="0" y="733.5" width="36.6" height="24.65" shape-rendering="crispEdges"/><rect fill="#14151a" x="36.6" y="733.5" width="1073.6" height="24.65" shape-rendering="crispEdges"/><rect fill="#14151a" x="1110.2" y="733.5" width="36.6" height="24.65" shape-rendering="crispEdges"/><rect fill="#14151a" x="1146.8" y="733.5" width="73.2" height="24.65" shape-rendering="crispEdges"/><rect fill="#14151a" x="0" y="757.9" width="36.6" height="24.65" shape-rendering="crispEdges"/><rect fill="#14151a" x="36.6" y="757.9" width="1073.6" height="24.65" shape-rendering="crispEdges"/><rect fill="#14151a" x="1110.2" y="757.9" width="36.6" height="24.65" shape-rendering="crispEdges"/><rect fill="#14151a" x="1146.8" y="757.9" width="73.2" height="24.65" shape-rendering="crispEdges"/><rect fill="#14151a" x="0" y="782.3" width="36.6" height="24.65" shape-rendering="crispEdges"/><rect fill="#14151a" x="36.6" y="782.3" width="1073.6" height="24.65" shape-rendering="crispEdges"/><rect fill="#14151a" x="1110.2" y="782.3" width="36.6" height="24.65" shape-rendering="crispEdges"/><rect fill="#14151a" x="1146.8" y="782.3" width="73.2" height="24.65" shape-rendering="crispEdges"/><rect fill="#14151a" x="0" y="806.7" width="36.6" height="24.65" shape-rendering="crispEdges"/><rect fill="#14151a" x="36.6" y="806.7" width="1073.6" height="24.65" shape-rendering="crispEdges"/><rect fill="#14151a" x="1110.2" y="806.7" width="36.6" height="24.65" shape-rendering="crispEdges"/><rect fill="#14151a" x="1146.8" y="806.7" width="73.2" height="24.65" shape-rendering="crispEdges"/><rect fill="#14151a" x="0" y="831.1" width="36.6" height="24.65" shape-rendering="crispEdges"/><rect fill="#14151a" x="36.6" y="831.1" width="1073.6" height="24.65" shape-rendering="crispEdges"/><rect fill="#14151a" x="1110.2" y="831.1" width="36.6" height="24.65" shape-rendering="crispEdges"/><rect fill="#14151a" x="1146.8" y="831.1" width="73.2" height="24.65" shape-rendering="crispEdges"/><rect fill="#14151a" x="0" y="855.5" width="1146.8" height="24.65" shape-rendering="crispEdges"/><rect fill="#14151a" x="1146.8" y="855.5" width="73.2" height="24.65" shape-rendering="crispEdges"/><rect fill="#14151a" x="0" y="879.9" width="36.6" height="24.65" shape-rendering="crispEdges"/><rect fill="#14151a" x="36.6" y="879.9" width="0" height="24.65" shape-rendering="crispEdges"/><rect fill="#14151a" x="36.6" y="879.9" width="1146.8" height="24.65" shape-rendering="crispEdges"/><rect fill="#14151a" x="1183.4" y="879.9" width="36.6" height="24.65" shape-rendering="crispEdges"/><rect fill="#1b1d23" x="0" y="904.3" width="61" height="24.65" shape-rendering="crispEdges"/><rect fill="#1b1d23" x="61" y="904.3" width="61" height="24.65" shape-rendering="crispEdges"/><rect fill="#1b1d23" x="122" y="904.3" width="36.6" height="24.65" shape-rendering="crispEdges"/><rect fill="#1b1d23" x="158.6" y="904.3" width="85.4" height="24.65" shape-rendering="crispEdges"/><rect fill="#1b1d23" x="244" y="904.3" width="36.6" height="24.65" shape-rendering="crispEdges"/><rect fill="#1b1d23" x="280.6" y="904.3" width="61" height="24.65" shape-rendering="crispEdges"/><rect fill="#1b1d23" x="341.6" y="904.3" width="732" height="24.65" shape-rendering="crispEdges"/><rect fill="#1b1d23" x="1073.6" y="904.3" width="12.2" height="24.65" shape-rendering="crispEdges"/><rect fill="#1b1d23" x="1085.8" y="904.3" width="24.4" height="24.65" shape-rendering="crispEdges"/><rect fill="#1b1d23" x="1110.2" y="904.3" width="97.6" height="24.65" shape-rendering="crispEdges"/><rect fill="#1b1d23" x="1207.8" y="904.3" width="12.2" height="24.65" shape-rendering="crispEdges"/>
    <g class="terminal-2325414588-matrix">
    <text class="terminal-2325414588-r1" x="1220" y="20" textLength="12.2" clip-path="url(#terminal-2325414588-line-0)">
</text><text class="terminal-2325414588-r1" x="1220" y="44.4" textLength="12.2" clip-path="url(#terminal-2325414588-line-1)">
</text><text class="terminal-2325414588-r1" x="1220" y="68.8" textLength="12.2" clip-path="url(#terminal-2325414588-line-2)">
</text><text class="terminal-2325414588-r2" x="390.4" y="93.2" textLength="353.8" clip-path="url(#terminal-2325414588-line-3)">Outbound&#160;and&#160;PE&#160;OS&#160;brainstorm</text><text class="terminal-2325414588-r1" x="1220" y="93.2" textLength="12.2" clip-path="url(#terminal-2325414588-line-3)">
</text><text class="terminal-2325414588-r1" x="1220" y="117.6" textLength="12.2" clip-path="url(#terminal-2325414588-line-4)">
</text><text class="terminal-2325414588-r1" x="1220" y="142" textLength="12.2" clip-path="url(#terminal-2325414588-line-5)">
</text><text class="terminal-2325414588-r3" x="61" y="166.4" textLength="85.4" clip-path="url(#terminal-2325414588-line-6)">Summary</text><text class="terminal-2325414588-r1" x="1220" y="166.4" textLength="12.2" clip-path="url(#terminal-2325414588-line-6)">
</text><text class="terminal-2325414588-r1" x="1220" y="190.8" textLength="12.2" clip-path="url(#terminal-2325414588-line-7)">
</text><text class="terminal-2325414588-r4" x="61" y="215.2" textLength="1012.6" clip-path="url(#terminal-2325414588-line-8)">Walked&#160;through&#160;the&#160;outbound&#160;pipeline&#160;and&#160;agreed&#160;the&#160;PE&#160;operating-system&#160;pitch&#160;needs</text><text class="terminal-2325414588-r1" x="1220" y="215.2" textLength="12.2" clip-path="url(#terminal-2325414588-line-8)">
</text><text class="terminal-2325414588-r4" x="61" y="239.6" textLength="195.2" clip-path="url(#terminal-2325414588-line-9)">a&#160;sharper&#160;wedge.</text><text class="terminal-2325414588-r1" x="1220" y="239.6" textLength="12.2" clip-path="url(#terminal-2325414588-line-9)">
</text><text class="terminal-2325414588-r1" x="1220" y="264" textLength="12.2" clip-path="url(#terminal-2325414588-line-10)">
</text><text class="terminal-2325414588-r1" x="1220" y="288.4" textLength="12.2" clip-path="url(#terminal-2325414588-line-11)">
</text><text class="terminal-2325414588-r3" x="61" y="312.8" textLength="109.8" clip-path="url(#terminal-2325414588-line-12)">Decisions</text><text class="terminal-2325414588-r1" x="1220" y="312.8" textLength="12.2" clip-path="url(#terminal-2325414588-line-12)">
</text><text class="terminal-2325414588-r1" x="1220" y="337.2" textLength="12.2" clip-path="url(#terminal-2325414588-line-13)">
</text><text class="terminal-2325414588-r5" x="61" y="361.6" textLength="24.4" clip-path="url(#terminal-2325414588-line-14)">•&#160;</text><text class="terminal-2325414588-r4" x="85.4" y="361.6" textLength="634.4" clip-path="url(#terminal-2325414588-line-14)">Lead&#160;with&#160;the&#160;reporting&#160;workflow,&#160;not&#160;the&#160;data&#160;room.</text><text class="terminal-2325414588-r1" x="1220" y="361.6" textLength="12.2" clip-path="url(#terminal-2325414588-line-14)">
</text><text class="terminal-2325414588-r1" x="1220" y="386" textLength="12.2" clip-path="url(#terminal-2325414588-line-15)">
</text><text class="terminal-2325414588-r1" x="1220" y="410.4" textLength="12.2" clip-path="url(#terminal-2325414588-line-16)">
</text><text class="terminal-2325414588-r3" x="61" y="434.8" textLength="146.4" clip-path="url(#terminal-2325414588-line-17)">Action&#160;items</text><text class="terminal-2325414588-r1" x="1220" y="434.8" textLength="12.2" clip-path="url(#terminal-2325414588-line-17)">
</text><text class="terminal-2325414588-r1" x="1220" y="459.2" textLength="12.2" clip-path="url(#terminal-2325414588-line-18)">
</text><text class="terminal-2325414588-r5" x="61" y="483.6" textLength="24.4" clip-path="url(#terminal-2325414588-line-19)">•&#160;</text><text class="terminal-2325414588-r4" x="85.4" y="483.6" textLength="536.8" clip-path="url(#terminal-2325414588-line-19)">[&#160;]&#160;Draft&#160;the&#160;two-slide&#160;wedge&#160;narrative&#160;(Me)</text><text class="terminal-2325414588-r1" x="1220" y="483.6" textLength="12.2" clip-path="url(#terminal-2325414588-line-19)">
</text><text class="terminal-2325414588-r5" x="61" y="508" textLength="24.4" clip-path="url(#terminal-2325414588-line-20)">•&#160;</text><text class="terminal-2325414588-r4" x="85.4" y="508" textLength="488" clip-path="url(#terminal-2325414588-line-20)">[&#160;]&#160;Pull&#160;the&#160;churn&#160;numbers&#160;for&#160;Q2&#160;(Them)</text><text class="terminal-2325414588-r1" x="1220" y="508" textLength="12.2" clip-path="url(#terminal-2325414588-line-20)">
</text><text class="terminal-2325414588-r1" x="1220" y="532.4" textLength="12.2" clip-path="url(#terminal-2325414588-line-21)">
</text><text class="terminal-2325414588-r1" x="1220" y="556.8" textLength="12.2" clip-path="url(#terminal-2325414588-line-22)">
</text><text class="terminal-2325414588-r3" x="61" y="581.2" textLength="122" clip-path="url(#terminal-2325414588-line-23)">Transcript</text><text class="terminal-2325414588-r1" x="1220" y="581.2" textLength="12.2" clip-path="url(#terminal-2325414588-line-23)">
</text><text class="terminal-2325414588-r1" x="1220" y="605.6" textLength="12.2" clip-path="url(#terminal-2325414588-line-24)">
</text><text class="terminal-2325414588-r6" x="61" y="630" textLength="170.8" clip-path="url(#terminal-2325414588-line-25)">[00:00:04]&#160;Me:</text><text class="terminal-2325414588-r4" x="231.8" y="630" textLength="305" clip-path="url(#terminal-2325414588-line-25)">&#160;Okay,&#160;so&#160;outbound&#160;first.</text><text class="terminal-2325414588-r1" x="1220" y="630" textLength="12.2" clip-path="url(#terminal-2325414588-line-25)">
</text><text class="terminal-2325414588-r1" x="1220" y="654.4" textLength="12.2" clip-path="url(#terminal-2325414588-line-26)">
</text><text class="terminal-2325414588-r6" x="61" y="678.8" textLength="195.2" clip-path="url(#terminal-2325414588-line-27)">[00:00:09]&#160;Them:</text><text class="terminal-2325414588-r4" x="256.2" y="678.8" textLength="305" clip-path="url(#terminal-2325414588-line-27)">&#160;Yeah,&#160;let&#160;me&#160;pull&#160;it&#160;up.</text><text class="terminal-2325414588-r1" x="1220" y="678.8" textLength="12.2" clip-path="url(#terminal-2325414588-line-27)">
</text><text class="terminal-2325414588-r1" x="1220" y="703.2" textLength="12.2" clip-path="url(#terminal-2325414588-line-28)">
</text><text class="terminal-2325414588-r1" x="1220" y="727.6" textLength="12.2" clip-path="url(#terminal-2325414588-line-29)">
</text><text class="terminal-2325414588-r1" x="1220" y="752" textLength="12.2" clip-path="url(#terminal-2325414588-line-30)">
</text><text class="terminal-2325414588-r1" x="1220" y="776.4" textLength="12.2" clip-path="url(#terminal-2325414588-line-31)">
</text><text class="terminal-2325414588-r1" x="1220" y="800.8" textLength="12.2" clip-path="url(#terminal-2325414588-line-32)">
</text><text class="terminal-2325414588-r1" x="1220" y="825.2" textLength="12.2" clip-path="url(#terminal-2325414588-line-33)">
</text><text class="terminal-2325414588-r1" x="1220" y="849.6" textLength="12.2" clip-path="url(#terminal-2325414588-line-34)">
</text><text class="terminal-2325414588-r1" x="1220" y="874" textLength="12.2" clip-path="url(#terminal-2325414588-line-35)">
</text><text class="terminal-2325414588-r1" x="1220" y="898.4" textLength="12.2" clip-path="url(#terminal-2325414588-line-36)">
</text><text class="terminal-2325414588-r8" x="0" y="922.8" textLength="61" clip-path="url(#terminal-2325414588-line-37)">&#160;esc&#160;</text><text class="terminal-2325414588-r4" x="61" y="922.8" textLength="61" clip-path="url(#terminal-2325414588-line-37)">back&#160;</text><text class="terminal-2325414588-r8" x="122" y="922.8" textLength="36.6" clip-path="url(#terminal-2325414588-line-37)">&#160;e&#160;</text><text class="terminal-2325414588-r4" x="158.6" y="922.8" textLength="85.4" clip-path="url(#terminal-2325414588-line-37)">editor&#160;</text><text class="terminal-2325414588-r8" x="244" y="922.8" textLength="36.6" clip-path="url(#terminal-2325414588-line-37)">&#160;q&#160;</text><text class="terminal-2325414588-r4" x="280.6" y="922.8" textLength="61" clip-path="url(#terminal-2325414588-line-37)">quit&#160;</text><text class="terminal-2325414588-r9" x="1073.6" y="922.8" textLength="12.2" clip-path="url(#terminal-2325414588-line-37)">▏</text><text class="terminal-2325414588-r8" x="1085.8" y="922.8" textLength="24.4" clip-path="url(#terminal-2325414588-line-37)">^p</text><text class="terminal-2325414588-r4" x="1110.2" y="922.8" textLength="97.6" clip-path="url(#terminal-2325414588-line-37)">&#160;palette</text>
    </g>
    </g>
</svg>
