<svg class="rich-terminal" viewBox="0 0 1238 782.0" xmlns="http://www.w3.org/2000/svg">
    <!-- Generated with Rich https://www.textualize.io -->
    <style>

    @font-face {
        font-family: "Fira Code";
        src: local("FiraCode-Regular"),
                url("https://cdnjs.cloudflare.com/ajax/libs/firacode/6.2.0/woff2/FiraCode-Regular.woff2") format("woff2"),
                url("https://cdnjs.cloudflare.com/ajax/libs/firacode/6.2.0/woff/FiraCode-Regular.woff") format("woff");
        font-style: normal;
        font-weight: 400;
    }
    @font-face {
        font-family: "Fira Code";
        src: local("FiraCode-Bold"),
                url("https://cdnjs.cloudflare.com/ajax/libs/firacode/6.2.0/woff2/FiraCode-Bold.woff2") format("woff2"),
                url("https://cdnjs.cloudflare.com/ajax/libs/firacode/6.2.0/woff/FiraCode-Bold.woff") format("woff");
        font-style: bold;
        font-weight: 700;
    }

    .terminal-587332678-matrix {
        font-family: Fira Code, monospace;
        font-size: 20px;
        line-height: 24.4px;
        font-variant-east-asian: full-width;
    }

    .terminal-587332678-title {
        font-size: 18px;
        font-weight: bold;
        font-family: arial;
    }

    .terminal-587332678-r1 { fill: #c5c8c6 }
.terminal-587332678-r2 { fill: #e9e5dc }
.terminal-587332678-r3 { fill: #e9e5dc;font-weight: bold }
.terminal-587332678-r4 { fill: #8a857a }
.terminal-587332678-r5 { fill: #e05d4b;font-weight: bold }
.terminal-587332678-r6 { fill: #8a857a;font-style: italic; }
.terminal-587332678-r7 { fill: #14151a }
.terminal-587332678-r8 { fill: #33363e }
.terminal-587332678-r9 { fill: #717276 }
.terminal-587332678-r10 { fill: #e0e0e0 }
.terminal-587332678-r11 { fill: #5c584f;font-weight: bold }
.terminal-587332678-r12 { fill: #d9a24c;font-weight: bold }
.terminal-587332678-r13 { fill: #8a857a;font-weight: bold }
.terminal-587332678-r14 { fill: #e0e0e0;font-weight: bold }
.terminal-587332678-r15 { fill: #ffa62b;font-weight: bold }
.terminal-587332678-r16 { fill: #424448 }
    </style>

    <defs>
    <clipPath id="terminal-587332678-clip-terminal">
      <rect x="0" y="0" width="1219.0" height="731.0" />
    </clipPath>
    <clipPath id="terminal-587332678-line-0">
    <rect x="0" y="1.5" width="1220" height="24.65"/>
            </clipPath>
<clipPath id="terminal-587332678-line-1">
    <rect x="0" y="25.9" width="1220" height="24.65"/>
            </clipPath>
<clipPath id="terminal-587332678-line-2">
    <rect x="0" y="50.3" width="1220" height="24.65"/>
            </clipPath>
<clipPath id="terminal-587332678-line-3">
    <rect x="0" y="74.7" width="1220" height="24.65"/>
            </clipPath>
<clipPath id="terminal-587332678-line-4">
    <rect x="0" y="99.1" width="1220" height="24.65"/>
            </clipPath>
<clipPath id="terminal-587332678-line-5">
    <rect x="0" y="123.5" width="1220" height="24.65"/>
            </clipPath>
<clipPath id="terminal-587332678-line-6">
    <rect x="0" y="147.9" width="1220" height="24.65"/>
            </clipPath>
<clipPath id="terminal-587332678-line-7">
    <rect x="0" y="172.3" width="1220" height="24.65"/>
            </clipPath>
<clipPath id="terminal-587332678-line-8">
    <rect x="0" y="196.7" width="1220" height="24.65"/>
            </clipPath>
<clipPath id="terminal-587332678-line-9">
    <rect x="0" y="221.1" width="1220" height="24.65"/>
            </clipPath>
<clipPath id="terminal-587332678-line-10">
    <rect x="0" y="245.5" width="1220" height="24.65"/>
            </clipPath>
<clipPath id="terminal-587332678-line-11">
    <rect x="0" y="269.9" width="1220" height="24.65"/>
            </clipPath>
<clipPath id="terminal-587332678-line-12">
    <rect x="0" y="294.3" width="1220" height="24.65"/>
            </clipPath>
<clipPath id="terminal-587332678-line-13">
    <rect x="0" y="318.7" width="1220" height="24.65"/>
            </clipPath>
<clipPath id="terminal-587332678-line-14">
    <rect x="0" y="343.1" width="1220" height="24.65"/>
            </clipPath>
<clipPath id="terminal-587332678-line-15">
    <rect x="0" y="367.5" width="1220" height="24.65"/>
            </clipPath>
<clipPath id="terminal-587332678-line-16">
    <rect x="0" y="391.9" width="1220" height="24.65"/>
            </clipPath>
<clipPath id="terminal-587332678-line-17">
    <rect x="0" y="416.3" width="1220" height="24.65"/>
            </clipPath>
<clipPath id="terminal-587332678-line-18">
    <rect x="0" y="440.7" width="1220" height="24.65"/>
            </clipPath>
<clipPath id="terminal-587332678-line-19">
    <rect x="0" y="465.1" width="1220" height="24.65"/>
            </clipPath>
<clipPath id="terminal-587332678-line-20">
    <rect x="0" y="489.5" width="1220" height="24.65"/>
            </clipPath>
<clipPath id="terminal-587332678-line-21">
    <rect x="0" y="513.9" width="1220" height="24.65"/>
            </clipPath>
<clipPath id="terminal-587332678-line-22">
    <rect x="0" y="538.3" width="1220" height="24.65"/>
            </clipPath>
<clipPath id="terminal-587332678-line-23">
    <rect x="0" y="562.7" width="1220" height="24.65"/>
            </clipPath>
<clipPath id="terminal-587332678-line-24">
    <rect x="0" y="587.1" width="1220" height="24.65"/>
            </clipPath>
<clipPath id="terminal-587332678-line-25">
    <rect x="0" y="611.5" width="1220" height="24.65"/>
            </clipPath>
<clipPath id="terminal-587332678-line-26">
    <rect x="0" y="635.9" width="1220" height="24.65"/>
            </clipPath>
<clipPath id="terminal-587332678-line-27">
    <rect x="0" y="660.3" width="1220" height="24.65"/>
            </clipPath>
<clipPath id="terminal-587332678-line-28">
    <rect x="0" y="684.7" width="1220" height="24.65"/>
            </clipPath>
    </defs>

    <rect fill="#292929" stroke="rgba(255,255,255,0.35)" stroke-width="1" x="1" y="1" width="1236" height="780" rx="8"/><text class="terminal-587332678-title" fill="#c5c8c6" text-anchor="middle" x="618" y="27">razorbill</text>
            <g transform="translate(26,22)">
            <circle cx="0" cy="0" r="7" fill="#ff5f57"/>
            <circle cx="22" cy="0" r="7" fill="#febc2e"/>
            <circle cx="44" cy="0" r="7" fill="#28c840"/>
            </g>
        
    <g transform="translate(9, 41)" clip-path="url(#terminal-587332678-clip-terminal)">
    <rect fill="#14151a" x="0" y="1.5" width="1220" height="24.65" shape-rendering="crispEdges"/><rect fill="#14151a" x="0" y="25.9" width="24.4" height="24.65" shape-rendering="crispEdges"/><rect fill="#14151a" x="24.4" y="25.9" width="268.4" height="24.65" shape-rendering="crispEdges"/><rect fill="#14151a" x="292.8" y="25.9" width="61" height="24.65" shape-rendering="crispEdges"/><rect fill="#14151a" x="353.8" y="25.9" width="24.4" height="24.65" shape-rendering="crispEdges"/><rect fill="#14151a" x="378.2" y="25.9" width="109.8" height="24.65" shape-rendering="crispEdges"/><rect fill="#14151a" x="488" y="25.9" width="707.6" height="24.65" shape-rendering="crispEdges"/><rect fill="#14151a" x="1195.6" y="25.9" width="24.4" height="24.65" shape-rendering="crispEdges"/><rect fill="#14151a" x="0" y="50.3" width="24.4" height="24.65" shape-rendering="crispEdges"/><rect fill="#14151a" x="24.4" y="50.3" width="268.4" height="24.65" shape-rendering="crispEdges"/><rect fill="#14151a" x="292.8" y="50.3" width="61" height="24.65" shape-rendering="crispEdges"/><rect fill="#14151a" x="353.8" y="50.3" width="24.4" height="24.65" shape-rendering="crispEdges"/><rect fill="#14151a" x="378.2" y="50.3" width="378.2" height="24.65" shape-rendering="crispEdges"/><rect fill="#14151a" x="756.4" y="50.3" width="439.2" height="24.65" shape-rendering="crispEdges"/><rect fill="#14151a" x="1195.6" y="50.3" width="24.4" height="24.65" shape-rendering="crispEdges"/><rect fill="#14151a" x="0" y="74.7" width="24.4" height="24.65" shape-rendering="crispEdges"/><rect fill="#14151a" x="24.4" y="74.7" width="268.4" height="24.65" shape-rendering="crispEdges"/><rect fill="#14151a" x="292.8" y="74.7" width="61" height="24.65" shape-rendering="crispEdges"/><rect fill="#14151a" x="353.8" y="74.7" width="24.4" height="24.65" shape-rendering="crispEdges"/><rect fill="#14151a" x="378.2" y="74.7" width="817.4" height="24.65" shape-rendering="crispEdges"/><rect fill="#14151a" x="1195.6" y="74.7" width="24.4" height="24.65" shape-rendering="crispEdges"/><rect fill="#14151a" x="0" y="99.1" width="24.4" height="24.65" shape-rendering="crispEdges"/><rect fill="#14151a" x="24.4" y="99.1" width="268.4" height="24.65" shape-rendering="crispEdges"/><rect fill="#14151a" x="292.8" y="99.1" width="61" height="24.65" shape-rendering="crispEdges"/><rect fill="#14151a" x="353.8" y="99.1" width="24.4" height="24.65" shape-rendering="crispEdges"/><rect fill="#14151a" x="378.2" y="99.1" width="366" height="24.65" shape-rendering="crispEdges"/><rect fill="#14151a" x="744.2" y="99.1" width="451.4" height="24.65" shape-rendering="crispEdges"/><rect fill="#14151a" x="1195.6" y="99.1" width="24.4" height="24.65" shape-rendering="crispEdges"/><rect fill="#14151a" x="0" y="123.5" width="24.4" height="24.65" shape-rendering="crispEdges"/><rect fill="#14151a" x="24.4" y="123.5" width="268.4" height="24.65" shape-rendering="crispEdges"/><rect fill="#14151a" x="292.8" y="123.5" width="61" height="24.65" shape-rendering="crispEdges"/><rect fill="#14151a" x="353.8" y="123.5" width="24.4" height="24.65" shape-rendering="crispEdges"/><rect fill="#14151a" x="378.2" y="123.5" width="817.4" height="24.65" shape-rendering="crispEdges"/><rect fill="#14151a" x="1195.6" y="123.5" width="24.4" height="24.65" shape-rendering="crispEdges"/><rect fill="#14151a" x="0" y="147.9" width="24.4" height="24.65" shape-rendering="crispEdges"/><rect fill="#14151a" x="24.4" y="147.9" width="268.4" height="24.65" shape-rendering="crispEdges"/><rect fill="#14151a" x="292.8" y="147.9" width="61" height="24.65" shape-rendering="crispEdges"/><rect fill="#14151a" x="353.8" y="147.9" width="24.4" height="24.65" shape-rendering="crispEdges"/><rect fill="#14151a" x="378.2" y="147.9" width="0" height="24.65" shape-rendering="crispEdges"/><rect fill="#14151a" x="378.2" y="147.9" width="817.4" height="24.65" shape-rendering="crispEdges"/><rect fill="#14151a" x="1195.6" y="147.9" width="24.4" height="24.65" shape-rendering="crispEdges"/><rect fill="#14151a" x="0" y="172.3" width="24.4" height="24.65" shape-rendering="crispEdges"/><rect fill="#14151a" x="24.4" y="172.3" width="268.4" height="24.65" shape-rendering="crispEdges"/><rect fill="#14151a" x="292.8" y="172.3" width="61" height="24.65" shape-rendering="crispEdges"/><rect fill="#14151a" x="353.8" y="172.3" width="24.4" height="24.65" shape-rendering="crispEdges"/><rect fill="#14151a" x="378.2" y="172.3" width="817.4" height="24.65" shape-rendering="crispEdges"/><rect fill="#14151a" x="1195.6" y="172.3" width="24.4" height="24.65" shape-rendering="crispEdges"/><rect fill="#14151a" x="0" y="196.7" width="24.4" height="24.65" shape-rendering="crispEdges"/><rect fill="#14151a" x="24.4" y="196.7" width="268.4" height="24.65" shape-rendering="crispEdges"/><rect fill="#14151a" x="292.8" y="196.7" width="61" height="24.65" shape-rendering="crispEdges"/><rect fill="#14151a" x="353.8" y="196.7" width="24.4" height="24.65" shape-rendering="crispEdges"/><rect fill="#14151a" x="378.2" y="196.7" width="817.4" height="24.65" shape-rendering="crispEdges"/><rect fill="#14151a" x="1195.6" y="196.7" width="24.4" height="24.65" shape-rendering="crispEdges"/><rect fill="#14151a" x="0" y="221.1" width="24.4" height="24.65" shape-rendering="crispEdges"/><rect fill="#14151a" x="24.4" y="221.1" width="268.4" height="24.65" shape-rendering="crispEdges"/><rect fill="#14151a" x="292.8" y="221.1" width="61" height="24.65" shape-rendering="crispEdges"/><rect fill="#14151a" x="353.8" y="221.1" width="24.4" height="24.65" shape-rendering="crispEdges"/><rect fill="#14151a" x="378.2" y="221.1" width="817.4" height="24.65" shape-rendering="crispEdges"/><rect fill="#14151a" x="1195.6" y="221.1" width="24.4" height="24.65" shape-rendering="crispEdges"/><rect fill="#14151a" x="0" y="245.5" width="24.4" height="24.65" shape-rendering="crispEdges"/><rect fill="#14151a" x="24.4" y="245.5" width="268.4" height="24.65" shape-rendering="crispEdges"/><rect fill="#14151a" x="292.8" y="245.5" width="61" height="24.65" shape-rendering="crispEdges"/><rect fill="#14151a" x="353.8" y="245.5" width="24.4" height="24.65" shape-rendering="crispEdges"/><rect fill="#14151a" x="378.2" y="245.5" width="817.4" height="24.65" shape-rendering="crispEdges"/><rect fill="#14151a" x="1195.6" y="245.5" width="24.4" height="24.65" shape-rendering="crispEdges"/><rect fill="#14151a" x="0" y="269.9" width="24.4" height="24.65" shape-rendering="crispEdges"/><rect fill="#14151a" x="24.4" y="269.9" width="268.4" height="24.65" shape-rendering="crispEdges"/><rect fill="#14151a" x="292.8" y="269.9" width="61" height="24.65" shape-rendering="crispEdges"/><rect fill="#14151a" x="353.8" y="269.9" width="24.4" height="24.65" shape-rendering="crispEdges"/><rect fill="#14151a" x="378.2" y="269.9" width="817.4" height="24.65" shape-rendering="crispEdges"/><rect fill="#14151a" x="1195.6" y="269.9" width="24.4" height="24.65" shape-rendering="crispEdges"/><rect fill="#14151a" x="0" y="294.3" width="24.4" height="24.65" shape-rendering="crispEdges"/><rect fill="#14151a" x="24.4" y="294.3" width="329.4" height="24.65" shape-rendering="crispEdges"/><rect fill="#14151a" x="353.8" y="294.3" width="24.4" height="24.65" shape-rendering="crispEdges"/><rect fill="#14151a" x="378.2" y="294.3" width="817.4" height="24.65" shape-rendering="crispEdges"/><rect fill="#14151a" x="1195.6" y="294.3" width="24.4" height="24.65" shape-rendering="crispEdges"/><rect fill="#14151a" x="0" y="318.7" width="24.4" height="24.65" shape-rendering="crispEdges"/><rect fill="#33363e" x="24.4" y="318.7" width="12.2" height="24.65" shape-rendering="crispEdges"/><rect fill="#1b1d23" x="36.6" y="318.7" width="1146.8" height="24.65" shape-rendering="crispEdges"/><rect fill="#14151a" x="1183.4" y="318.7" width="12.2" height="24.65" shape-rendering="crispEdges"/><rect fill="#14151a" x="1195.6" y="318.7" width="24.4" height="24.65" shape-rendering="crispEdges"/><rect fill="#14151a" x="0" y="343.1" width="24.4" height="24.65" shape-rendering="crispEdges"/><rect fill="#33363e" x="24.4" y="343.1" width="12.2" height="24.65" shape-rendering="crispEdges"/><rect fill="#1b1d23" x="36.6" y="343.1" width="24.4" height="24.65" shape-rendering="crispEdges"/><rect fill="#1b1d23" x="61" y="343.1" width="524.6" height="24.65" shape-rendering="crispEdges"/><rect fill="#1b1d23" x="585.6" y="343.1" width="573.4" height="24.65" shape-rendering="crispEdges"/><rect fill="#1b1d23" x="1159" y="343.1" width="24.4" height="24.65" shape-rendering="crispEdges"/><rect fill="#14151a" x="1183.4" y="343.1" width="12.2" height="24.65" shape-rendering="crispEdges"/><rect fill="#14151a" x="1195.6" y="343.1" width="24.4" height="24.65" shape-rendering="crispEdges"/><rect fill="#14151a" x="0" y="367.5" width="24.4" height="24.65" shape-rendering="crispEdges"/><rect fill="#33363e" x="24.4" y="367.5" width="12.2" height="24.65" shape-rendering="crispEdges"/><rect fill="#1b1d23" x="36.6" y="367.5" width="1146.8" height="24.65" shape-rendering="crispEdges"/><rect fill="#14151a" x="1183.4" y="367.5" width="12.2" height="24.65" shape-rendering="crispEdges"/><rect fill="#14151a" x="1195.6" y="367.5" width="24.4" height="24.65" shape-rendering="crispEdges"/><rect fill="#14151a" x="0" y="391.9" width="1220" height="24.65" shape-rendering="crispEdges"/><rect fill="#14151a" x="0" y="416.3" width="24.4" height="24.65" shape-rendering="crispEdges"/><rect fill="#14151a" x="24.4" y="416.3" width="97.6" height="24.65" shape-rendering="crispEdges"/><rect fill="#14151a" x="122" y="416.3" width="1073.6" height="24.65" shape-rendering="crispEdges"/><rect fill="#14151a" x="1195.6" y="416.3" width="24.4" height="24.65" shape-rendering="crispEdges"/><rect fill="#14151a" x="0" y="440.7" width="12.2" height="24.65" shape-rendering="crispEdges"/><rect fill="#2a2d36" x="12.2" y="440.7" width="12.2" height="24.65" shape-rendering="crispEdges"/><rect fill="#2a2d36" x="24.4" y="440.7" width="353.8" height="24.65" shape-rendering="crispEdges"/><rect fill="#2a2d36" x="378.2" y="440.7" width="793" height="24.65" shape-rendering="crispEdges"/><rect fill="#2a2d36" x="1171.2" y="440.7" width="12.2" height="24.65" shape-rendering="crispEdges"/><rect fill="#14151a" x="1183.4" y="440.7" width="36.6" height="24.65" shape-rendering="crispEdges"/><rect fill="#14151a" x="0" y="465.1" width="12.2" height="24.65" shape-rendering="crispEdges"/><rect fill="#2a2d36" x="12.2" y="465.1" width="12.2" height="24.65" shape-rendering="crispEdges"/><rect fill="#2a2d36" x="24.4" y="465.1" width="427" height="24.65" shape-rendering="crispEdges"/><rect fill="#2a2d36" x="451.4" y="465.1" width="719.8" height="24.65" shape-rendering="crispEdges"/><rect fill="#2a2d36" x="1171.2" y="465.1" width="12.2" height="24.65" shape-rendering="crispEdges"/><rect fill="#14151a" x="1183.4" y="465.1" width="36.6" height="24.65" shape-rendering="crispEdges"/><rect fill="#14151a" x="0" y="489.5" width="12.2" height="24.65" shape-rendering="crispEdges"/><rect fill="#2a2d36" x="12.2" y="489.5" width="12.2" height="24.65" shape-rendering="crispEdges"/><rect fill="#2a2d36" x="24.4" y="489.5" width="1146.8" height="24.65" shape-rendering="crispEdges"/><rect fill="#2a2d36" x="1171.2" y="489.5" width="12.2" height="24.65" shape-rendering="crispEdges"/><rect fill="#14151a" x="1183.4" y="489.5" width="36.6" height="24.65" shape-rendering="crispEdges"/><rect fill="#14151a" x="0" y="513.9" width="12.2" height="24.65" shape-rendering="crispEdges"/><rect fill="#14151a" x="12.2" y="513.9" width="12.2" height="24.65" shape-rendering="crispEdges"/><rect fill="#14151a" x="24.4" y="513.9" width="170.8" height="24.65" shape-rendering="crispEdges"/><rect fill="#14151a" x="195.2" y="513.9" width="976" height="24.65" shape-rendering="crispEdges"/><rect fill="#14151a" x="1171.2" y="513.9" width="12.2" height="24.65" shape-rendering="crispEdges"/><rect fill="#14151a" x="1183.4" y="513.9" width="36.6" height="24.65" shape-rendering="crispEdges"/><rect fill="#14151a" x="0" y="538.3" width="12.2" height="24.65" shape-rendering="crispEdges"/><rect fill="#14151a" x="12.2" y="538.3" width="12.2" height="24.65" shape-rendering="crispEdges"/><rect fill="#14151a" x="24.4" y="538.3" width="390.4" height="24.65" shape-rendering="crispEdges"/><rect fill="#14151a" x="414.8" y="538.3" width="756.4" height="24.65" shape-rendering="crispEdges"/><rect fill="#14151a" x="1171.2" y="538.3" width="12.2" height="24.65" shape-rendering="crispEdges"/><rect fill="#14151a" x="1183.4" y="538.3" width="36.6" height="24.65" shape-rendering="crispEdges"/><rect fill="#14151a" x="0" y="562.7" width="12.2" height="24.65" shape-rendering="crispEdges"/><rect fill="#14151a" x="12.2" y="562.7" width="12.2" height="24.65" shape-rendering="crispEdges"/><rect fill="#14151a" x="24.4" y="562.7" width="1146.8" height="24.65" shape-rendering="crispEdges"/><rect fill="#14151a" x="1171.2" y="562.7" width="12.2" height="24.65" shape-rendering="crispEdges"/><rect fill="#14151a" x="1183.4" y="562.7" width="36.6" height="24.65" shape-rendering="crispEdges"/><rect fill="#14151a" x="0" y="587.1" width="12.2" height="24.65" shape-rendering="crispEdges"/><rect fill="#14151a" x="12.2" y="587.1" width="12.2" height="24.65" shape-rendering="crispEdges"/><rect fill="#14151a" x="24.4" y="587.1" width="158.6" height="24.65" shape-rendering="crispEdges"/><rect fill="#14151a" x="183" y="587.1" width="988.2" height="24.65" shape-rendering="crispEdges"/><rect fill="#14151a" x="1171.2" y="587.1" width="12.2" height="24.65" shape-rendering="crispEdges"/><rect fill="#14151a" x="1183.4" y="587.1" width="36.6" height="24.65" shape-rendering="crispEdges"/><rect fill="#14151a" x="0" y="611.5" width="12.2" height="24.65" shape-rendering="crispEdges"/><rect fill="#14151a" x="12.2" y="611.5" width="12.2" height="24.65" shape-rendering="crispEdges"/><rect fill="#14151a" x="24.4" y="611.5" width="475.8" height="24.65" shape-rendering="crispEdges"/><rect fill="#14151a" x="500.2" y="611.5" width="671" height="24.65" shape-rendering="crispEdges"/><rect fill="#14151a" x="1171.2" y="611.5" width="12.2" height="24.65" shape-rendering="crispEdges"/><rect fill="#14151a" x="1183.4" y="611.5" width="36.6" height="24.65" shape-rendering="crispEdges"/><rect fill="#14151a" x="0" y="635.9" width="12.2" height="24.65" shape-rendering="crispEdges"/><rect fill="#14151a" x="12.2" y="635.9" width="12.2" height="24.65" shape-rendering="crispEdges"/><rect fill="#14151a" x="24.4" y="635.9" width="1146.8" height="24.65" shape-rendering="crispEdges"/><rect fill="#14151a" x="1171.2" y="635.9" width="12.2" height="24.65" shape-rendering="crispEdges"/><rect fill="#14151a" x="1183.4" y="635.9" width="36.6" height="24.65" shape-rendering="crispEdges"/><rect fill="#14151a" x="0" y="660.3" width="12.2" height="24.65" shape-rendering="crispEdges"/><rect fill="#14151a" x="12.2" y="660.3" width="1171.2" height="24.65" shape-rendering="crispEdges"/><rect fill="#14151a" x="1183.4" y="660.3" width="36.6" height="24.65" shape-rendering="crispEdges"/><rect fill="#14151a" x="0" y="684.7" width="12.2" height="24.65" shape-rendering="crispEdges"/><rect fill="#14151a" x="12.2" y="684.7" width="1171.2" height="24.65" shape-rendering="crispEdges"/><rect fill="#14151a" x="1183.4" y="684.7" width="36.6" height="24.65" shape-rendering="crispEdges"/><rect fill="#1b1d23" x="0" y="709.1" width="36.6" height="24.65" shape-rendering="crispEdges"/><rect fill="#1b1d23" x="36.6" y="709.1" width="85.4" height="24.65" shape-rendering="crispEdges"/><rect fill="#1b1d23" x="122" y="709.1" width="36.6" height="24.65" shape-rendering="crispEdges"/><rect fill="#1b1d23" x="158.6" y="709.1" width="48.8" height="24.65" shape-rendering="crispEdges"/><rect fill="#1b1d23" x="207.4" y="709.1" width="36.6" height="24.65" shape-rendering="crispEdges"/><rect fill="#1b1d23" x="244" y="709.1" width="146.4" height="24.65" shape-rendering="crispEdges"/><rect fill="#1b1d23" x="390.4" y="709.1" width="36.6" height="24.65" shape-rendering="crispEdges"/><rect fill="#1b1d23" x="427" y="709.1" width="61" height="24.65" shape-rendering="crispEdges"/><rect fill="#1b1d23" x="488" y="709.1" width="585.6" height="24.65" shape-rendering="crispEdges"/><rect fill="#1b1d23" x="1073.6" y="709.1" width="12.2" height="24.65" shape-rendering="crispEdges"/><rect fill="#1b1d23" x="1085.8" y="709.1" width="24.4" height="24.65" shape-rendering="crispEdges"/><rect fill="#1b1d23" x="1110.2" y="709.1" width="97.6" height="24.65" shape-rendering="crispEdges"/><rect fill="#1b1d23" x="1207.8" y="709.1" width="12.2" height="24.65" shape-rendering="crispEdges"/>
    <g class="terminal-587332678-matrix">
    <text class="terminal-587332678-r1" x="1220" y="20" textLength="12.2" clip-path="url(#terminal-587332678-line-0)">
</text><text class="terminal-587332678-r2" x="24.4" y="44.4" textLength="268.4" clip-path="url(#terminal-587332678-line-1)">⠀⠀⠀⠀⢀⣠⣤⣶⣶⣦⣤⡀⠀⠀⠀⠀⠀⠀⠀⠀⠀⠀</text><text class="terminal-587332678-r3" x="378.2" y="44.4" textLength="109.8" clip-path="url(#terminal-587332678-line-1)">razorbill</text><text class="terminal-587332678-r1" x="1220" y="44.4" textLength="12.2" clip-path="url(#terminal-587332678-line-1)">
</text><text class="terminal-587332678-r2" x="24.4" y="68.8" textLength="268.4" clip-path="url(#terminal-587332678-line-2)">⠀⠀⢀⣶⣿⣿⣿⣿⣿⣿⣿⣿⣦⡀⠀⠀⠀⠀⠀⠀⠀⠀</text><text class="terminal-587332678-r4" x="378.2" y="68.8" textLength="378.2" clip-path="url(#terminal-587332678-line-2)">meeting&#160;transcription&#160;and&#160;notes</text><text class="terminal-587332678-r1" x="1220" y="68.8" textLength="12.2" clip-path="url(#terminal-587332678-line-2)">
</text><text class="terminal-587332678-r2" x="24.4" y="93.2" textLength="268.4" clip-path="url(#terminal-587332678-line-3)">⠀⠀⣾⣿⣿⣿⣿⣿⡿⣿⣿⣿⣿⣿⣄⠀⠀⠀⠀⠀⠀⠀</text><text class="terminal-587332678-r1" x="1220" y="93.2" textLength="12.2" clip-path="url(#terminal-587332678-line-3)">
</text><text class="terminal-587332678-r2" x="24.4" y="117.6" textLength="268.4" clip-path="url(#terminal-587332678-line-4)">⠀⠀⣿⣿⣿⣿⢟⣭⣾⣿⣿⣿⣿⣿⣿⣦⠀⠀⠀⠀⠀⠀</text><text class="terminal-587332678-r5" x="378.2" y="117.6" textLength="366" clip-path="url(#terminal-587332678-line-4)">●&#160;recording&#160;·&#160;Firefox&#160;·&#160;12&#160;min</text><text class="terminal-587332678-r1" x="1220" y="117.6" textLength="12.2" clip-path="url(#terminal-587332678-line-4)">
</text><text class="terminal-587332678-r2" x="24.4" y="142" textLength="268.4" clip-path="url(#terminal-587332678-line-5)">⠀⠀⢸⣿⡟⣱⣿⣿⣿⣿⣿⣿⣿⣿⣿⣿⣷⣄⠀⠀⠀⠀</text><text class="terminal-587332678-r1" x="1220" y="142" textLength="12.2" clip-path="url(#terminal-587332678-line-5)">
</text><text class="terminal-587332678-r2" x="24.4" y="166.4" textLength="268.4" clip-path="url(#terminal-587332678-line-6)">⠀⠀⣼⣿⣾⢿⣿⣿⣿⣿⣿⣿⣿⣿⣿⣿⣿⣿⣷⣄⠀⠀</text><text class="terminal-587332678-r1" x="1220" y="166.4" textLength="12.2" clip-path="url(#terminal-587332678-line-6)">
</text><text class="terminal-587332678-r2" x="24.4" y="190.8" textLength="268.4" clip-path="url(#terminal-587332678-line-7)">⠀⢸⡇⣿⣳⠟⠁⠀⠹⣿⣿⣿⣿⣿⣿⣿⣿⣿⣿⣿⣷⠀</text><text class="terminal-587332678-r1" x="1220" y="190.8" textLength="12.2" clip-path="url(#terminal-587332678-line-7)">
</text><text class="terminal-587332678-r2" x="24.4" y="215.2" textLength="268.4" clip-path="url(#terminal-587332678-line-8)">⠀⢸⣿⡿⠃⠀⠀⠀⠀⠈⠉⠉⠉⠉⠉⠉⠙⠻⢿⣿⣿⠀</text><text class="terminal-587332678-r1" x="1220" y="215.2" textLength="12.2" clip-path="url(#terminal-587332678-line-8)">
</text><text class="terminal-587332678-r2" x="24.4" y="239.6" textLength="268.4" clip-path="url(#terminal-587332678-line-9)">⠀⠀⠉⠀⠀⡀⠀⠀⠀⠀⠀⠀⠀⠀⠀⠀⠀⠀⠀⠙⢿⠀</text><text class="terminal-587332678-r1" x="1220" y="239.6" textLength="12.2" clip-path="url(#terminal-587332678-line-9)">
</text><text class="terminal-587332678-r2" x="24.4" y="264" textLength="268.4" clip-path="url(#terminal-587332678-line-10)">⠀⠀⠀⠀⠀⡇⠀⠀⠀⠀⠀⠀⠀⠀⠀⠀⠀⠀⠀⠀⠈⠀</text><text class="terminal-587332678-r1" x="1220" y="264" textLength="12.2" clip-path="url(#terminal-587332678-line-10)">
</text><text class="terminal-587332678-r2" x="24.4" y="288.4" textLength="268.4" clip-path="url(#terminal-587332678-line-11)">⠀⠀⠀⠀⠀⢿⡀⠀⠀⠀⠀⠀⠀⠀⠀⠀⠀⠀⠀⠀⠀⠀</text><text class="terminal-587332678-r1" x="1220" y="288.4" textLength="12.2" clip-path="url(#terminal-587332678-line-11)">
</text><text class="terminal-587332678-r1" x="1220" y="312.8" textLength="12.2" clip-path="url(#terminal-587332678-line-12)">
</text><text class="terminal-587332678-r7" x="24.4" y="337.2" textLength="12.2" clip-path="url(#terminal-587332678-line-13)">▊</text><text class="terminal-587332678-r8" x="36.6" y="337.2" textLength="1146.8" clip-path="url(#terminal-587332678-line-13)">▔▔▔▔▔▔▔▔▔▔▔▔▔▔▔▔▔▔▔▔▔▔▔▔▔▔▔▔▔▔▔▔▔▔▔▔▔▔▔▔▔▔▔▔▔▔▔▔▔▔▔▔▔▔▔▔▔▔▔▔▔▔▔▔▔▔▔▔▔▔▔▔▔▔▔▔▔▔▔▔▔▔▔▔▔▔▔▔▔▔▔▔▔▔</text><text class="terminal-587332678-r8" x="1183.4" y="337.2" textLength="12.2" clip-path="url(#terminal-587332678-line-13)">▎</text><text class="terminal-587332678-r1" x="1220" y="337.2" textLength="12.2" clip-path="url(#terminal-587332678-line-13)">
</text><text class="terminal-587332678-r7" x="24.4" y="361.6" textLength="12.2" clip-path="url(#terminal-587332678-line-14)">▊</text><text class="terminal-587332678-r9" x="61" y="361.6" textLength="524.6" clip-path="url(#terminal-587332678-line-14)">jot&#160;a&#160;note&#160;into&#160;the&#160;meeting&#160;(enter&#160;to&#160;save)</text><text class="terminal-587332678-r8" x="1183.4" y="361.6" textLength="12.2" clip-path="url(#terminal-587332678-line-14)">▎</text><text class="terminal-587332678-r1" x="1220" y="361.6" textLength="12.2" clip-path="url(#terminal-587332678-line-14)">
</text><text class="terminal-587332678-r7" x="24.4" y="386" textLength="12.2" clip-path="url(#terminal-587332678-line-15)">▊</text><text class="terminal-587332678-r8" x="36.6" y="386" textLength="1146.8" clip-path="url(#terminal-587332678-line-15)">▁▁▁▁▁▁▁▁▁▁▁▁▁▁▁▁▁▁▁▁▁▁▁▁▁▁▁▁▁▁▁▁▁▁▁▁▁▁▁▁▁▁▁▁▁▁▁▁▁▁▁▁▁▁▁▁▁▁▁▁▁▁▁▁▁▁▁▁▁▁▁▁▁▁▁▁▁▁▁▁▁▁▁▁▁▁▁▁▁▁▁▁▁▁</text><text class="terminal-587332678-r8" x="1183.4" y="386" textLength="12.2" clip-path="url(#terminal-587332678-line-15)">▎</text><text class="terminal-587332678-r1" x="1220" y="386" textLength="12.2" clip-path="url(#terminal-587332678-line-15)">
</text><text class="terminal-587332678-r1" x="1220" y="410.4" textLength="12.2" clip-path="url(#terminal-587332678-line-16)">
</text><text class="terminal-587332678-r11" x="24.4" y="434.8" textLength="97.6" clip-path="url(#terminal-587332678-line-17)">meetings</text><text class="terminal-587332678-r1" x="1220" y="434.8" textLength="12.2" clip-path="url(#terminal-587332678-line-17)">
</text><text class="terminal-587332678-r12" x="24.4" y="459.2" textLength="353.8" clip-path="url(#terminal-587332678-line-18)">Outbound&#160;and&#160;PE&#160;OS&#160;brainstorm</text><text class="terminal-587332678-r1" x="1220" y="459.2" textLength="12.2" clip-path="url(#terminal-587332678-line-18)">
</text><text class="terminal-587332678-r13" x="24.4" y="483.6" textLength="427" clip-path="url(#terminal-587332678-line-19)">2026-07-06&#160;16:01&#160;·&#160;13&#160;min&#160;·&#160;Firefox</text><text class="terminal-587332678-r1" x="1220" y="483.6" textLength="12.2" clip-path="url(#terminal-587332678-line-19)">
</text><text class="terminal-587332678-r1" x="1220" y="508" textLength="12.2" clip-path="url(#terminal-587332678-line-20)">
</text><text class="terminal-587332678-r14" x="24.4" y="532.4" textLength="170.8" clip-path="url(#terminal-587332678-line-21)">Weekly&#160;standup</text><text class="terminal-587332678-r1" x="1220" y="532.4" textLength="12.2" clip-path="url(#terminal-587332678-line-21)">
</text><text class="terminal-587332678-r4" x="24.4" y="556.8" textLength="390.4" clip-path="url(#terminal-587332678-line-22)">2026-07-05&#160;14:00&#160;·&#160;28&#160;min&#160;·&#160;Zoom</text><text class="terminal-587332678-r1" x="1220" y="556.8" textLength="12.2" clip-path="url(#terminal-587332678-line-22)">
</text><text class="terminal-587332678-r1" x="1220" y="581.2" textLength="12.2" clip-path="url(#terminal-587332678-line-23)">
</text><text class="terminal-587332678-r14" x="24.4" y="605.6" textLength="158.6" clip-path="url(#terminal-587332678-line-24)">Design&#160;review</text><text class="terminal-587332678-r1" x="1220" y="605.6" textLength="12.2" clip-path="url(#terminal-587332678-line-24)">
</text><text class="terminal-587332678-r4" x="24.4" y="630" textLength="475.8" clip-path="url(#terminal-587332678-line-25)">2026-07-03&#160;11:30&#160;·&#160;47&#160;min&#160;·&#160;Google&#160;Meet</text><text class="terminal-587332678-r1" x="1220" y="630" textLength="12.2" clip-path="url(#terminal-587332678-line-25)">
</text><text class="terminal-587332678-r1" x="1220" y="654.4" textLength="12.2" clip-path="url(#terminal-587332678-line-26)">
</text><text class="terminal-587332678-r1" x="1220" y="678.8" textLength="12.2" clip-path="url(#terminal-587332678-line-27)">
</text><text class="terminal-587332678-r1" x="1220" y="703.2" textLength="12.2" clip-path="url(#terminal-587332678-line-28)">
</text><text class="terminal-587332678-r15" x="0" y="727.6" textLength="36.6" clip-path="url(#terminal-587332678-line-29)">&#160;e&#160;</text><text class="terminal-587332678-r10" x="36.6" y="727.6" textLength="85.4" clip-path="url(#terminal-587332678-line-29)">editor&#160;</text><text class="terminal-587332678-r15" x="122" y="727.6" textLength="36.6" clip-path="url(#terminal-587332678-line-29)">&#160;n&#160;</text><text class="terminal-587332678-r10" x="158.6" y="727.6" textLength="48.8" clip-path="url(#terminal-587332678-line-29)">jot&#160;</text><text class="terminal-587332678-r15" x="207.4" y="727.6" textLength="36.6" clip-path="url(#terminal-587332678-line-29)">&#160;r&#160;</text><text class="terminal-587332678-r10" x="244" y="727.6" textLength="146.4" clip-path="url(#terminal-587332678-line-29)">record/stop&#160;</text><text class="terminal-587332678-r15" x="390.4" y="727.6" textLength="36.6" clip-path="url(#terminal-587332678-line-29)">&#160;q&#160;</text><text class="terminal-587332678-r10" x="427" y="727.6" textLength="61" clip-path="url(#terminal-587332678-line-29)">quit&#160;</text><text class="terminal-587332678-r16" x="1073.6" y="727.6" textLength="12.2" clip-path="url(#terminal-587332678-line-29)">▏</text><text class="terminal-587332678-r15" x="1085.8" y="727.6" textLength="24.4" clip-path="url(#terminal-587332678-line-29)">^p</text><text class="terminal-587332678-r10" x="1110.2" y="727.6" textLength="97.6" clip-path="url(#terminal-587332678-line-29)">&#160;palette</text>
    </g>
    </g>
</svg>
