<svg class="rich-terminal" viewBox="0 0 1238 977.1999999999999" xmlns="http://www.w3.org/2000/svg">
    <!-- Generated with Rich https://www.textualize.io -->
    <style>

    @font-face {
        font-family: "Fira Code";
        src: local("FiraCode-Regular"),
                url("https://cdnjs.cloudflare.com/ajax/libs/firacode/6.2.0/woff2/FiraCode-Regular.woff2") format("woff2"),
                url("https://cdnjs.cloudflare.com/ajax/libs/firacode/6.2.0/woff/FiraCode-Regular.woff") format("woff");
        font-style: normal;
        font-weight: 400;
    }
    @font-face {
        font-family: "Fira Code";
        src: local("FiraCode-Bold"),
                url("https://cdnjs.cloudflare.com/ajax/libs/firacode/6.2.0/woff2/FiraCode-Bold.woff2") format("woff2"),
                url("https://cdnjs.cloudflare.com/ajax/libs/firacode/6.2.0/woff/FiraCode-Bold.woff") format("woff");
        font-style: bold;
        font-weight: 700;
    }

    .terminal-3238643032-matrix {
        font-family: Fira Code, monospace;
        font-size: 20px;
        line-height: 24.4px;
        font-variant-east-asian: full-width;
    }

    .terminal-3238643032-title {
        font-size: 18px;
        font-weight: bold;
        font-family: arial;
    }

    .terminal-3238643032-r1 { fill: #c5c8c6 }
.terminal-3238643032-r2 { fill: #e9e5dc }
.terminal-3238643032-r3 { fill: #e9e5dc;font-weight: bold }
.terminal-3238643032-r4 { fill: #8a857a }
.terminal-3238643032-r5 { fill: #e05d4b;font-weight: bold }
.terminal-3238643032-r6 { fill: #8a857a;font-style: italic; }
.terminal-3238643032-r7 { fill: #14151a }
.terminal-3238643032-r8 { fill: #33363e }
.terminal-3238643032-r9 { fill: #717276 }
.terminal-3238643032-r10 { fill: #e0e0e0 }
.terminal-3238643032-r11 { fill: #d9a24c }
.terminal-3238643032-r12 { fill: #8a857a;font-weight: bold }
.terminal-3238643032-r13 { fill: #6f6a5f }
.terminal-3238643032-r14 { fill: #c9c4b8 }
.terminal-3238643032-r15 { fill: #6f6a5f;font-style: italic; }
.terminal-3238643032-r16 { fill: #5c584f;font-weight: bold }
.terminal-3238643032-r17 { fill: #d9a24c;font-weight: bold }
.terminal-3238643032-r18 { fill: #000000 }
.terminal-3238643032-r19 { fill: #e0e0e0;font-weight: bold }
.terminal-3238643032-r20 { fill: #ffa62b;font-weight: bold }
.terminal-3238643032-r21 { fill: #424448 }
    </style>

    <defs>
    <clipPath id="terminal-3238643032-clip-terminal">
      <rect x="0" y="0" width="1219.0" height="926.1999999999999" />
    </clipPath>
    <clipPath id="terminal-3238643032-line-0">
    <rect x="0" y="1.5" width="1220" height="24.65"/>
            </clipPath>
<clipPath id="terminal-3238643032-line-1">
    <rect x="0" y="25.9" width="1220" height="24.65"/>
            </clipPath>
<clipPath id="terminal-3238643032-line-2">
    <rect x="0" y="50.3" width="1220" height="24.65"/>
            </clipPath>
<clipPath id="terminal-3238643032-line-3">
    <rect x="0" y="74.7" width="1220" height="24.65"/>
            </clipPath>
<clipPath id="terminal-3238643032-line-4">
    <rect x="0" y="99.1" width="1220" height="24.65"/>
            </clipPath>
<clipPath id="terminal-3238643032-line-5">
    <rect x="0" y="123.5" width="1220" height="24.65"/>
            </clipPath>
<clipPath id="terminal-3238643032-line-6">
    <rect x="0" y="147.9" width="1220" height="24.65"/>
            </clipPath>
<clipPath id="terminal-3238643032-line-7">
    <rect x="0" y="172.3" width="1220" height="24.65"/>
            </clipPath>
<clipPath id="terminal-3238643032-line-8">
    <rect x="0" y="196.7" width="1220" height="24.65"/>
            </clipPath>
<clipPath id="terminal-3238643032-line-9">
    <rect x="0" y="221.1" width="1220" height="24.65"/>
            </clipPath>
<clipPath id="terminal-3238643032-line-10">
    <rect x="0" y="245.5" width="1220" height="24.65"/>
            </clipPath>
<clipPath id="terminal-3238643032-line-11">
    <rect x="0" y="269.9" width="1220" height="24.65"/>
            </clipPath>
<clipPath id="terminal-3238643032-line-12">
    <rect x="0" y="294.3" width="1220" height="24.65"/>
            </clipPath>
<clipPath id="terminal-3238643032-line-13">
    <rect x="0" y="318.7" width="1220" height="24.65"/>
            </clipPath>
<clipPath id="terminal-3238643032-line-14">
    <rect x="0" y="343.1" width="1220" height="24.65"/>
            </clipPath>
<clipPath id="terminal-3238643032-line-15">
    <rect x="0" y="367.5" width="1220" height="24.65"/>
            </clipPath>
<clipPath id="terminal-3238643032-line-16">
    <rect x="0" y="391.9" width="1220" height="24.65"/>
            </clipPath>
<clipPath id="terminal-3238643032-line-17">
    <rect x="0" y="416.3" width="1220" height="24.65"/>
            </clipPath>
<clipPath id="terminal-3238643032-line-18">
    <rect x="0" y="440.7" width="1220" height="24.65"/>
            </clipPath>
<clipPath id="terminal-3238643032-line-19">
    <rect x="0" y="465.1" width="1220" height="24.65"/>
            </clipPath>
<clipPath id="terminal-3238643032-line-20">
    <rect x="0" y="489.5" width="1220" height="24.65"/>
            </clipPath>
<clipPath id="terminal-3238643032-line-21">
    <rect x="0" y="513.9" width="1220" height="24.65"/>
            </clipPath>
<clipPath id="terminal-3238643032-line-22">
    <rect x="0" y="538.3" width="1220" height="24.65"/>
            </clipPath>
<clipPath id="terminal-3238643032-line-23">
    <rect x="0" y="562.7" width="1220" height="24.65"/>
            </clipPath>
<clipPath id="terminal-3238643032-line-24">
    <rect x="0" y="587.1" width="1220" height="24.65"/>
            </clipPath>
<clipPath id="terminal-3238643032-line-25">
    <rect x="0" y="611.5" width="1220" height="24.65"/>
            </clipPath>
<clipPath id="terminal-3238643032-line-26">
    <rect x="0" y="635.9" width="1220" height="24.65"/>
            </clipPath>
<clipPath id="terminal-3238643032-line-27">
    <rect x="0" y="660.3" width="1220" height="24.65"/>
            </clipPath>
<clipPath id="terminal-3238643032-line-28">
    <rect x="0" y="684.7" width="1220" height="24.65"/>
            </clipPath>
<clipPath id="terminal-3238643032-line-29">
    <rect x="0" y="709.1" width="1220" height="24.65"/>
            </clipPath>
<clipPath id="terminal-3238643032-line-30">
    <rect x="0" y="733.5" width="1220" height="24.65"/>
            </clipPath>
<clipPath id="terminal-3238643032-line-31">
    <rect x="0" y="757.9" width="1220" height="24.65"/>
            </clipPath>
<clipPath id="terminal-3238643032-line-32">
    <rect x="0" y="782.3" width="1220" height="24.65"/>
            </clipPath>
<clipPath id="terminal-3238643032-line-33">
    <rect x="0" y="806.7" width="1220" height="24.65"/>
            </clipPath>
<clipPath id="terminal-3238643032-line-34">
    <rect x="0" y="831.1" width="1220" height="24.65"/>
            </clipPath>
<clipPath id="terminal-3238643032-line-35">
    <rect x="0" y="855.5" width="1220" height="24.65"/>
            </clipPath>
<clipPath id="terminal-3238643032-line-36">
    <rect x="0" y="879.9" width="1220" height="24.65"/>
            </clipPath>
    </defs>

    <rect fill="#292929" stroke="rgba(255,255,255,0.35)" stroke-width="1" x="1" y="1" width="1236" height="975.2" rx="8"/><text class="terminal-3238643032-title" fill="#c5c8c6" text-anchor="middle" x="618" y="27">razorbill</text>
            <g transform="translate(26,22)">
            <circle cx="0" cy="0" r="7" fill="#ff5f57"/>
            <circle cx="22" cy="0" r="7" fill="#febc2e"/>
            <circle cx="44" cy="0" r="7" fill="#28c840"/>
            </g>
        
    <g transform="translate(9, 41)" clip-path="url(#terminal-3238643032-clip-terminal)">
    <rect fill="#14151a" x="0" y="1.5" width="1220" height="24.65" shape-rendering="crispEdges"/><rect fill="#14151a" x="0" y="25.9" width="24.4" height="24.65" shape-rendering="crispEdges"/><rect fill="#14151a" x="24.4" y="25.9" width="268.4" height="24.65" shape-rendering="crispEdges"/><rect fill="#14151a" x="292.8" y="25.9" width="61" height="24.65" shape-rendering="crispEdges"/><rect fill="#14151a" x="353.8" y="25.9" width="24.4" height="24.65" shape-rendering="crispEdges"/><rect fill="#14151a" x="378.2" y="25.9" width="109.8" height="24.65" shape-rendering="crispEdges"/><rect fill="#14151a" x="488" y="25.9" width="707.6" height="24.65" shape-rendering="crispEdges"/><rect fill="#14151a" x="1195.6" y="25.9" width="24.4" height="24.65" shape-rendering="crispEdges"/><rect fill="#14151a" x="0" y="50.3" width="24.4" height="24.65" shape-rendering="crispEdges"/><rect fill="#14151a" x="24.4" y="50.3" width="268.4" height="24.65" shape-rendering="crispEdges"/><rect fill="#14151a" x="292.8" y="50.3" width="61" height="24.65" shape-rendering="crispEdges"/><rect fill="#14151a" x="353.8" y="50.3" width="24.4" height="24.65" shape-rendering="crispEdges"/><rect fill="#14151a" x="378.2" y="50.3" width="378.2" height="24.65" shape-rendering="crispEdges"/><rect fill="#14151a" x="756.4" y="50.3" width="439.2" height="24.65" shape-rendering="crispEdges"/><rect fill="#14151a" x="1195.6" y="50.3" width="24.4" height="24.65" shape-rendering="crispEdges"/><rect fill="#14151a" x="0" y="74.7" width="24.4" height="24.65" shape-rendering="crispEdges"/><rect fill="#14151a" x="24.4" y="74.7" width="268.4" height="24.65" shape-rendering="crispEdges"/><rect fill="#14151a" x="292.8" y="74.7" width="61" height="24.65" shape-rendering="crispEdges"/><rect fill="#14151a" x="353.8" y="74.7" width="24.4" height="24.65" shape-rendering="crispEdges"/><rect fill="#14151a" x="378.2" y="74.7" width="817.4" height="24.65" shape-rendering="crispEdges"/><rect fill="#14151a" x="1195.6" y="74.7" width="24.4" height="24.65" shape-rendering="crispEdges"/><rect fill="#14151a" x="0" y="99.1" width="24.4" height="24.65" shape-rendering="crispEdges"/><rect fill="#14151a" x="24.4" y="99.1" width="268.4" height="24.65" shape-rendering="crispEdges"/><rect fill="#14151a" x="292.8" y="99.1" width="61" height="24.65" shape-rendering="crispEdges"/><rect fill="#14151a" x="353.8" y="99.1" width="24.4" height="24.65" shape-rendering="crispEdges"/><rect fill="#14151a" x="378.2" y="99.1" width="366" height="24.65" shape-rendering="crispEdges"/><rect fill="#14151a" x="744.2" y="99.1" width="451.4" height="24.65" shape-rendering="crispEdges"/><rect fill="#14151a" x="1195.6" y="99.1" width="24.4" height="24.65" shape-rendering="crispEdges"/><rect fill="#14151a" x="0" y="123.5" width="24.4" height="24.65" shape-rendering="crispEdges"/><rect fill="#14151a" x="24.4" y="123.5" width="268.4" height="24.65" shape-rendering="crispEdges"/><rect fill="#14151a" x="292.8" y="123.5" width="61" height="24.65" shape-rendering="crispEdges"/><rect fill="#14151a" x="353.8" y="123.5" width="24.4" height="24.65" shape-rendering="crispEdges"/><rect fill="#14151a" x="378.2" y="123.5" width="817.4" height="24.65" shape-rendering="crispEdges"/><rect fill="#14151a" x="1195.6" y="123.5" width="24.4" height="24.65" shape-rendering="crispEdges"/><rect fill="#14151a" x="0" y="147.9" width="24.4" height="24.65" shape-rendering="crispEdges"/><rect fill="#14151a" x="24.4" y="147.9" width="268.4" height="24.65" shape-rendering="crispEdges"/><rect fill="#14151a" x="292.8" y="147.9" width="61" height="24.65" shape-rendering="crispEdges"/><rect fill="#14151a" x="353.8" y="147.9" width="24.4" height="24.65" shape-rendering="crispEdges"/><rect fill="#14151a" x="378.2" y="147.9" width="0" height="24.65" shape-rendering="crispEdges"/><rect fill="#14151a" x="378.2" y="147.9" width="817.4" height="24.65" shape-rendering="crispEdges"/><rect fill="#14151a" x="1195.6" y="147.9" width="24.4" height="24.65" shape-rendering="crispEdges"/><rect fill="#14151a" x="0" y="172.3" width="24.4" height="24.65" shape-rendering="crispEdges"/><rect fill="#14151a" x="24.4" y="172.3" width="268.4" height="24.65" shape-rendering="crispEdges"/><rect fill="#14151a" x="292.8" y="172.3" width="61" height="24.65" shape-rendering="crispEdges"/><rect fill="#14151a" x="353.8" y="172.3" width="24.4" height="24.65" shape-rendering="crispEdges"/><rect fill="#14151a" x="378.2" y="172.3" width="817.4" height="24.65" shape-rendering="crispEdges"/><rect fill="#14151a" x="1195.6" y="172.3" width="24.4" height="24.65" shape-rendering="crispEdges"/><rect fill="#14151a" x="0" y="196.7" width="24.4" height="24.65" shape-rendering="crispEdges"/><rect fill="#14151a" x="24.4" y="196.7" width="268.4" height="24.65" shape-rendering="crispEdges"/><rect fill="#14151a" x="292.8" y="196.7" width="61" height="24.65" shape-rendering="crispEdges"/><rect fill="#14151a" x="353.8" y="196.7" width="24.4" height="24.65" shape-rendering="crispEdges"/><rect fill="#14151a" x="378.2" y="196.7" width="817.4" height="24.65" shape-rendering="crispEdges"/><rect fill="#14151a" x="1195.6" y="196.7" width="24.4" height="24.65" shape-rendering="crispEdges"/><rect fill="#14151a" x="0" y="221.1" width="24.4" height="24.65" shape-rendering="crispEdges"/><rect fill="#14151a" x="24.4" y="221.1" width="268.4" height="24.65" shape-rendering="crispEdges"/><rect fill="#14151a" x="292.8" y="221.1" width="61" height="24.65" shape-rendering="crispEdges"/><rect fill="#14151a" x="353.8" y="221.1" width="24.4" height="24.65" shape-rendering="crispEdges"/><rect fill="#14151a" x="378.2" y="221.1" width="817.4" height="24.65" shape-rendering="crispEdges"/><rect fill="#14151a" x="1195.6" y="221.1" width="24.4" height="24.65" shape-rendering="crispEdges"/><rect fill="#14151a" x="0" y="245.5" width="24.4" height="24.65" shape-rendering="crispEdges"/><rect fill="#14151a" x="24.4" y="245.5" width="268.4" height="24.65" shape-rendering="crispEdges"/><rect fill="#14151a" x="292.8" y="245.5" width="61" height="24.65" shape-rendering="crispEdges"/><rect fill="#14151a" x="353.8" y="245.5" width="24.4" height="24.65" shape-rendering="crispEdges"/><rect fill="#14151a" x="378.2" y="245.5" width="817.4" height="24.65" shape-rendering="crispEdges"/><rect fill="#14151a" x="1195.6" y="245.5" width="24.4" height="24.65" shape-rendering="crispEdges"/><rect fill="#14151a" x="0" y="269.9" width="24.4" height="24.65" shape-rendering="crispEdges"/><rect fill="#14151a" x="24.4" y="269.9" width="268.4" height="24.65" shape-rendering="crispEdges"/><rect fill="#14151a" x="292.8" y="269.9" width="61" height="24.65" shape-rendering="crispEdges"/><rect fill="#14151a" x="353.8" y="269.9" width="24.4" height="24.65" shape-rendering="crispEdges"/><rect fill="#14151a" x="378.2" y="269.9" width="817.4" height="24.65" shape-rendering="crispEdges"/><rect fill="#14151a" x="1195.6" y="269.9" width="24.4" height="24.65" shape-rendering="crispEdges"/><rect fill="#14151a" x="0" y="294.3" width="24.4" height="24.65" shape-rendering="crispEdges"/><rect fill="#14151a" x="24.4" y="294.3" width="329.4" height="24.65" shape-rendering="crispEdges"/><rect fill="#14151a" x="353.8" y="294.3" width="24.4" height="24.65" shape-rendering="crispEdges"/><rect fill="#14151a" x="378.2" y="294.3" width="817.4" height="24.65" shape-rendering="crispEdges"/><rect fill="#14151a" x="1195.6" y="294.3" width="24.4" height="24.65" shape-rendering="crispEdges"/><rect fill="#14151a" x="0" y="318.7" width="24.4" height="24.65" shape-rendering="crispEdges"/><rect fill="#33363e" x="24.4" y="318.7" width="12.2" height="24.65" shape-rendering="crispEdges"/><rect fill="#1b1d23" x="36.6" y="318.7" width="1146.8" height="24.65" shape-rendering="crispEdges"/><rect fill="#14151a" x="1183.4" y="318.7" width="12.2" height="24.65" shape-rendering="crispEdges"/><rect fill="#14151a" x="1195.6" y="318.7" width="24.4" height="24.65" shape-rendering="crispEdges"/><rect fill="#14151a" x="0" y="343.1" width="24.4" height="24.65" shape-rendering="crispEdges"/><rect fill="#33363e" x="24.4" y="343.1" width="12.2" height="24.65" shape-rendering="crispEdges"/><rect fill="#1b1d23" x="36.6" y="343.1" width="24.4" height="24.65" shape-rendering="crispEdges"/><rect fill="#1b1d23" x="61" y="343.1" width="524.6" height="24.65" shape-rendering="crispEdges"/><rect fill="#1b1d23" x="585.6" y="343.1" width="573.4" height="24.65" shape-rendering="crispEdges"/><rect fill="#1b1d23" x="1159" y="343.1" width="24.4" height="24.65" shape-rendering="crispEdges"/><rect fill="#14151a" x="1183.4" y="343.1" width="12.2" height="24.65" shape-rendering="crispEdges"/><rect fill="#14151a" x="1195.6" y="343.1" width="24.4" height="24.65" shape-rendering="crispEdges"/><rect fill="#14151a" x="0" y="367.5" width="24.4" height="24.65" shape-rendering="crispEdges"/><rect fill="#33363e" x="24.4" y="367.5" width="12.2" height="24.65" shape-rendering="crispEdges"/><rect fill="#1b1d23" x="36.6" y="367.5" width="1146.8" height="24.65" shape-rendering="crispEdges"/><rect fill="#14151a" x="1183.4" y="367.5" width="12.2" height="24.65" shape-rendering="crispEdges"/><rect fill="#14151a" x="1195.6" y="367.5" width="24.4" height="24.65" shape-rendering="crispEdges"/><rect fill="#14151a" x="0" y="391.9" width="24.4" height="24.65" shape-rendering="crispEdges"/><rect fill="#14151a" x="24.4" y="391.9" width="12.2" height="24.65" shape-rendering="crispEdges"/><rect fill="#14151a" x="36.6" y="391.9" width="12.2" height="24.65" shape-rendering="crispEdges"/><rect fill="#14151a" x="48.8" y="391.9" width="1134.6" height="24.65" shape-rendering="crispEdges"/><rect fill="#14151a" x="1183.4" y="391.9" width="12.2" height="24.65" shape-rendering="crispEdges"/><rect fill="#14151a" x="1195.6" y="391.9" width="24.4" height="24.65" shape-rendering="crispEdges"/><rect fill="#14151a" x="0" y="416.3" width="24.4" height="24.65" shape-rendering="crispEdges"/><rect fill="#14151a" x="24.4" y="416.3" width="12.2" height="24.65" shape-rendering="crispEdges"/><rect fill="#14151a" x="36.6" y="416.3" width="12.2" height="24.65" shape-rendering="crispEdges"/><rect fill="#14151a" x="48.8" y="416.3" width="73.2" height="24.65" shape-rendering="crispEdges"/><rect fill="#14151a" x="122" y="416.3" width="1061.4" height="24.65" shape-rendering="crispEdges"/><rect fill="#14151a" x="1183.4" y="416.3" width="12.2" height="24.65" shape-rendering="crispEdges"/><rect fill="#14151a" x="1195.6" y="416.3" width="24.4" height="24.65" shape-rendering="crispEdges"/><rect fill="#14151a" x="0" y="440.7" width="24.4" height="24.65" shape-rendering="crispEdges"/><rect fill="#14151a" x="24.4" y="440.7" width="12.2" height="24.65" shape-rendering="crispEdges"/><rect fill="#14151a" x="36.6" y="440.7" width="12.2" height="24.65" shape-rendering="crispEdges"/><rect fill="#14151a" x="48.8" y="440.7" width="866.2" height="24.65" shape-rendering="crispEdges"/><rect fill="#14151a" x="915" y="440.7" width="268.4" height="24.65" shape-rendering="crispEdges"/><rect fill="#14151a" x="1183.4" y="440.7" width="12.2" height="24.65" shape-rendering="crispEdges"/><rect fill="#14151a" x="1195.6" y="440.7" width="24.4" height="24.65" shape-rendering="crispEdges"/><rect fill="#14151a" x="0" y="465.1" width="1220" height="24.65" shape-rendering="crispEdges"/><rect fill="#14151a" x="0" y="489.5" width="24.4" height="24.65" shape-rendering="crispEdges"/><rect fill="#14151a" x="24.4" y="489.5" width="183" height="24.65" shape-rendering="crispEdges"/><rect fill="#14151a" x="207.4" y="489.5" width="988.2" height="24.65" shape-rendering="crispEdges"/><rect fill="#14151a" x="1195.6" y="489.5" width="24.4" height="24.65" shape-rendering="crispEdges"/><rect fill="#14151a" x="0" y="513.9" width="24.4" height="24.65" shape-rendering="crispEdges"/><rect fill="#14151a" x="24.4" y="513.9" width="12.2" height="24.65" shape-rendering="crispEdges"/><rect fill="#14151a" x="36.6" y="513.9" width="12.2" height="24.65" shape-rendering="crispEdges"/><rect fill="#14151a" x="48.8" y="513.9" width="97.6" height="24.65" shape-rendering="crispEdges"/><rect fill="#14151a" x="146.4" y="513.9" width="1012.6" height="24.65" shape-rendering="crispEdges"/><rect fill="#14151a" x="1159" y="513.9" width="24.4" height="24.65" shape-rendering="crispEdges"/><rect fill="#14151a" x="1183.4" y="513.9" width="12.2" height="24.65" shape-rendering="crispEdges"/><rect fill="#14151a" x="1195.6" y="513.9" width="24.4" height="24.65" shape-rendering="crispEdges"/><rect fill="#14151a" x="0" y="538.3" width="24.4" height="24.65" shape-rendering="crispEdges"/><rect fill="#14151a" x="24.4" y="538.3" width="12.2" height="24.65" shape-rendering="crispEdges"/><rect fill="#14151a" x="36.6" y="538.3" width="12.2" height="24.65" shape-rendering="crispEdges"/><rect fill="#14151a" x="48.8" y="538.3" width="292.8" height="24.65" shape-rendering="crispEdges"/><rect fill="#14151a" x="341.6" y="538.3" width="841.8" height="24.65" shape-rendering="crispEdges"/><rect fill="#14151a" x="1183.4" y="538.3" width="12.2" height="24.65" shape-rendering="crispEdges"/><rect fill="#14151a" x="1195.6" y="538.3" width="24.4" height="24.65" shape-rendering="crispEdges"/><rect fill="#14151a" x="0" y="562.7" width="24.4" height="24.65" shape-rendering="crispEdges"/><rect fill="#14151a" x="24.4" y="562.7" width="12.2" height="24.65" shape-rendering="crispEdges"/><rect fill="#14151a" x="36.6" y="562.7" width="12.2" height="24.65" shape-rendering="crispEdges"/><rect fill="#14151a" x="48.8" y="562.7" width="97.6" height="24.65" shape-rendering="crispEdges"/><rect fill="#14151a" x="146.4" y="562.7" width="878.4" height="24.65" shape-rendering="crispEdges"/><rect fill="#14151a" x="1024.8" y="562.7" width="158.6" height="24.65" shape-rendering="crispEdges"/><rect fill="#14151a" x="1183.4" y="562.7" width="12.2" height="24.65" shape-rendering="crispEdges"/><rect fill="#14151a" x="1195.6" y="562.7" width="24.4" height="24.65" shape-rendering="crispEdges"/><rect fill="#14151a" x="0" y="587.1" width="24.4" height="24.65" shape-rendering="crispEdges"/><rect fill="#14151a" x="24.4" y="587.1" width="12.2" height="24.65" shape-rendering="crispEdges"/><rect fill="#14151a" x="36.6" y="587.1" width="12.2" height="24.65" shape-rendering="crispEdges"/><rect fill="#14151a" x="48.8" y="587.1" width="97.6" height="24.65" shape-rendering="crispEdges"/><rect fill="#14151a" x="146.4" y="587.1" width="902.8" height="24.65" shape-rendering="crispEdges"/><rect fill="#14151a" x="1049.2" y="587.1" width="134.2" height="24.65" shape-rendering="crispEdges"/><rect fill="#14151a" x="1183.4" y="587.1" width="12.2" height="24.65" shape-rendering="crispEdges"/><rect fill="#14151a" x="1195.6" y="587.1" width="24.4" height="24.65" shape-rendering="crispEdges"/><rect fill="#14151a" x="0" y="611.5" width="24.4" height="24.65" shape-rendering="crispEdges"/><rect fill="#14151a" x="24.4" y="611.5" width="12.2" height="24.65" shape-rendering="crispEdges"/><rect fill="#14151a" x="36.6" y="611.5" width="12.2" height="24.65" shape-rendering="crispEdges"/><rect fill="#14151a" x="48.8" y="611.5" width="97.6" height="24.65" shape-rendering="crispEdges"/><rect fill="#14151a" x="146.4" y="611.5" width="634.4" height="24.65" shape-rendering="crispEdges"/><rect fill="#14151a" x="780.8" y="611.5" width="402.6" height="24.65" shape-rendering="crispEdges"/><rect fill="#14151a" x="1183.4" y="611.5" width="12.2" height="24.65" shape-rendering="crispEdges"/><rect fill="#14151a" x="1195.6" y="611.5" width="24.4" height="24.65" shape-rendering="crispEdges"/><rect fill="#14151a" x="0" y="635.9" width="24.4" height="24.65" shape-rendering="crispEdges"/><rect fill="#14151a" x="24.4" y="635.9" width="12.2" height="24.65" shape-rendering="crispEdges"/><rect fill="#14151a" x="36.6" y="635.9" width="12.2" height="24.65" shape-rendering="crispEdges"/><rect fill="#14151a" x="48.8" y="635.9" width="854" height="24.65" shape-rendering="crispEdges"/><rect fill="#14151a" x="902.8" y="635.9" width="280.6" height="24.65" shape-rendering="crispEdges"/><rect fill="#14151a" x="1183.4" y="635.9" width="12.2" height="24.65" shape-rendering="crispEdges"/><rect fill="#14151a" x="1195.6" y="635.9" width="24.4" height="24.65" shape-rendering="crispEdges"/><rect fill="#14151a" x="0" y="660.3" width="24.4" height="24.65" shape-rendering="crispEdges"/><rect fill="#14151a" x="24.4" y="660.3" width="12.2" height="24.65" shape-rendering="crispEdges"/><rect fill="#14151a" x="36.6" y="660.3" width="12.2" height="24.65" shape-rendering="crispEdges"/><rect fill="#14151a" x="48.8" y="660.3" width="1134.6" height="24.65" shape-rendering="crispEdges"/><rect fill="#14151a" x="1183.4" y="660.3" width="12.2" height="24.65" shape-rendering="crispEdges"/><rect fill="#14151a" x="1195.6" y="660.3" width="24.4" height="24.65" shape-rendering="crispEdges"/><rect fill="#14151a" x="0" y="684.7" width="24.4" height="24.65" shape-rendering="crispEdges"/><rect fill="#14151a" x="24.4" y="684.7" width="12.2" height="24.65" shape-rendering="crispEdges"/><rect fill="#14151a" x="36.6" y="684.7" width="12.2" height="24.65" shape-rendering="crispEdges"/><rect fill="#14151a" x="48.8" y="684.7" width="1134.6" height="24.65" shape-rendering="crispEdges"/><rect fill="#14151a" x="1183.4" y="684.7" width="12.2" height="24.65" shape-rendering="crispEdges"/><rect fill="#14151a" x="1195.6" y="684.7" width="24.4" height="24.65" shape-rendering="crispEdges"/><rect fill="#14151a" x="0" y="709.1" width="24.4" height="24.65" shape-rendering="crispEdges"/><rect fill="#14151a" x="24.4" y="709.1" width="12.2" height="24.65" shape-rendering="crispEdges"/><rect fill="#14151a" x="36.6" y="709.1" width="12.2" height="24.65" shape-rendering="crispEdges"/><rect fill="#14151a" x="48.8" y="709.1" width="1134.6" height="24.65" shape-rendering="crispEdges"/><rect fill="#14151a" x="1183.4" y="709.1" width="12.2" height="24.65" shape-rendering="crispEdges"/><rect fill="#14151a" x="1195.6" y="709.1" width="24.4" height="24.65" shape-rendering="crispEdges"/><rect fill="#14151a" x="0" y="733.5" width="1220" height="24.65" shape-rendering="crispEdges"/><rect fill="#14151a" x="0" y="757.9" width="24.4" height="24.65" shape-rendering="crispEdges"/><rect fill="#14151a" x="24.4" y="757.9" width="97.6" height="24.65" shape-rendering="crispEdges"/><rect fill="#14151a" x="122" y="757.9" width="1073.6" height="24.65" shape-rendering="crispEdges"/><rect fill="#14151a" x="1195.6" y="757.9" width="24.4" height="24.65" shape-rendering="crispEdges"/><rect fill="#14151a" x="0" y="782.3" width="12.2" height="24.65" shape-rendering="crispEdges"/><rect fill="#2a2d36" x="12.2" y="782.3" width="12.2" height="24.65" shape-rendering="crispEdges"/><rect fill="#2a2d36" x="24.4" y="782.3" width="353.8" height="24.65" shape-rendering="crispEdges"/><rect fill="#2a2d36" x="378.2" y="782.3" width="768.6" height="24.65" shape-rendering="crispEdges"/><rect fill="#2a2d36" x="1146.8" y="782.3" width="12.2" height="24.65" shape-rendering="crispEdges"/><rect fill="#14151a" x="1159" y="782.3" width="24.4" height="24.65" shape-rendering="crispEdges"/><rect fill="#14151a" x="1183.4" y="782.3" width="36.6" height="24.65" shape-rendering="crispEdges"/><rect fill="#14151a" x="0" y="806.7" width="12.2" height="24.65" shape-rendering="crispEdges"/><rect fill="#2a2d36" x="12.2" y="806.7" width="12.2" height="24.65" shape-rendering="crispEdges"/><rect fill="#2a2d36" x="24.4" y="806.7" width="427" height="24.65" shape-rendering="crispEdges"/><rect fill="#2a2d36" x="451.4" y="806.7" width="695.4" height="24.65" shape-rendering="crispEdges"/><rect fill="#2a2d36" x="1146.8" y="806.7" width="12.2" height="24.65" shape-rendering="crispEdges"/><rect fill="#14151a" x="1159" y="806.7" width="24.4" height="24.65" shape-rendering="crispEdges"/><rect fill="#14151a" x="1183.4" y="806.7" width="36.6" height="24.65" shape-rendering="crispEdges"/><rect fill="#14151a" x="0" y="831.1" width="12.2" height="24.65" shape-rendering="crispEdges"/><rect fill="#2a2d36" x="12.2" y="831.1" width="12.2" height="24.65" shape-rendering="crispEdges"/><rect fill="#2a2d36" x="24.4" y="831.1" width="1122.4" height="24.65" shape-rendering="crispEdges"/><rect fill="#2a2d36" x="1146.8" y="831.1" width="12.2" height="24.65" shape-rendering="crispEdges"/><rect fill="#14151a" x="1159" y="831.1" width="24.4" height="24.65" shape-rendering="crispEdges"/><rect fill="#14151a" x="1183.4" y="831.1" width="36.6" height="24.65" shape-rendering="crispEdges"/><rect fill="#14151a" x="0" y="855.5" width="12.2" height="24.65" shape-rendering="crispEdges"/><rect fill="#14151a" x="12.2" y="855.5" width="12.2" height="24.65" shape-rendering="crispEdges"/><rect fill="#14151a" x="24.4" y="855.5" width="170.8" height="24.65" shape-rendering="crispEdges"/><rect fill="#14151a" x="195.2" y="855.5" width="951.6" height="24.65" shape-rendering="crispEdges"/><rect fill="#14151a" x="1146.8" y="855.5" width="12.2" height="24.65" shape-rendering="crispEdges"/><rect fill="#000000" x="1159" y="855.5" width="24.4" height="24.65" shape-rendering="crispEdges"/><rect fill="#14151a" x="1183.4" y="855.5" width="36.6" height="24.65" shape-rendering="crispEdges"/><rect fill="#14151a" x="0" y="879.9" width="12.2" height="24.65" shape-rendering="crispEdges"/><rect fill="#14151a" x="12.2" y="879.9" width="12.2" height="24.65" shape-rendering="crispEdges"/><rect fill="#14151a" x="24.4" y="879.9" width="390.4" height="24.65" shape-rendering="crispEdges"/><rect fill="#14151a" x="414.8" y="879.9" width="732" height="24.65" shape-rendering="crispEdges"/><rect fill="#14151a" x="1146.8" y="879.9" width="12.2" height="24.65" shape-rendering="crispEdges"/><rect fill="#000000" x="1159" y="879.9" width="24.4" height="24.65" shape-rendering="crispEdges"/><rect fill="#14151a" x="1183.4" y="879.9" width="36.6" height="24.65" shape-rendering="crispEdges"/><rect fill="#1b1d23" x="0" y="904.3" width="36.6" height="24.65" shape-rendering="crispEdges"/><rect fill="#1b1d23" x="36.6" y="904.3" width="85.4" height="24.65" shape-rendering="crispEdges"/><rect fill="#1b1d23" x="122" y="904.3" width="36.6" height="24.65" shape-rendering="crispEdges"/><rect fill="#1b1d23" x="158.6" y="904.3" width="48.8" height="24.65" shape-rendering="crispEdges"/><rect fill="#1b1d23" x="207.4" y="904.3" width="36.6" height="24.65" shape-rendering="crispEdges"/><rect fill="#1b1d23" x="244" y="904.3" width="48.8" height="24.65" shape-rendering="crispEdges"/><rect fill="#1b1d23" x="292.8" y="904.3" width="36.6" height="24.65" shape-rendering="crispEdges"/><rect fill="#1b1d23" x="329.4" y="904.3" width="146.4" height="24.65" shape-rendering="crispEdges"/><rect fill="#1b1d23" x="475.8" y="904.3" width="36.6" height="24.65" shape-rendering="crispEdges"/><rect fill="#1b1d23" x="512.4" y="904.3" width="85.4" height="24.65" shape-rendering="crispEdges"/><rect fill="#1b1d23" x="597.8" y="904.3" width="36.6" height="24.65" shape-rendering="crispEdges"/><rect fill="#1b1d23" x="634.4" y="904.3" width="61" height="24.65" shape-rendering="crispEdges"/><rect fill="#1b1d23" x="695.4" y="904.3" width="378.2" height="24.65" shape-rendering="crispEdges"/><rect fill="#1b1d23" x="1073.6" y="904.3" width="12.2" height="24.65" shape-rendering="crispEdges"/><rect fill="#1b1d23" x="1085.8" y="904.3" width="24.4" height="24.65" shape-rendering="crispEdges"/><rect fill="#1b1d23" x="1110.2" y="904.3" width="97.6" height="24.65" shape-rendering="crispEdges"/><rect fill="#1b1d23" x="1207.8" y="904.3" width="12.2" height="24.65" shape-rendering="crispEdges"/>
    <g class="terminal-3238643032-matrix">
    <text class="terminal-3238643032-r1" x="1220" y="20" textLength="12.2" clip-path="url(#terminal-3238643032-line-0)">
</text><text class="terminal-3238643032-r2" x="24.4" y="44.4" textLength="268.4" clip-path="url(#terminal-3238643032-line-1)">⠀⠀⠀⠀⢀⣠⣤⣶⣶⣦⣤⡀⠀⠀⠀⠀⠀⠀⠀⠀⠀⠀</text><text class="terminal-3238643032-r3" x="378.2" y="44.4" textLength="109.8" clip-path="url(#terminal-3238643032-line-1)">razorbill</text><text class="terminal-3238643032-r1" x="1220" y="44.4" textLength="12.2" clip-path="url(#terminal-3238643032-line-1)">
</text><text class="terminal-3238643032-r2" x="24.4" y="68.8" textLength="268.4" clip-path="url(#terminal-3238643032-line-2)">⠀⠀⢀⣶⣿⣿⣿⣿⣿⣿⣿⣿⣦⡀⠀⠀⠀⠀⠀⠀⠀⠀</text><text class="terminal-3238643032-r4" x="378.2" y="68.8" textLength="378.2" clip-path="url(#terminal-3238643032-line-2)">meeting&#160;transcription&#160;and&#160;notes</text><text class="terminal-3238643032-r1" x="1220" y="68.8" textLength="12.2" clip-path="url(#terminal-3238643032-line-2)">
</text><text class="terminal-3238643032-r2" x="24.4" y="93.2" textLength="268.4" clip-path="url(#terminal-3238643032-line-3)">⠀⠀⣾⣿⣿⣿⣿⣿⡿⣿⣿⣿⣿⣿⣄⠀⠀⠀⠀⠀⠀⠀</text><text class="terminal-3238643032-r1" x="1220" y="93.2" textLength="12.2" clip-path="url(#terminal-3238643032-line-3)">
</text><text class="terminal-3238643032-r2" x="24.4" y="117.6" textLength="268.4" clip-path="url(#terminal-3238643032-line-4)">⠀⠀⣿⣿⣿⣿⢟⣭⣾⣿⣿⣿⣿⣿⣿⣦⠀⠀⠀⠀⠀⠀</text><text class="terminal-3238643032-r5" x="378.2" y="117.6" textLength="366" clip-path="url(#terminal-3238643032-line-4)">●&#160;recording&#160;·&#160;Firefox&#160;·&#160;12&#160;min</text><text class="terminal-3238643032-r1" x="1220" y="117.6" textLength="12.2" clip-path="url(#terminal-3238643032-line-4)">
</text><text class="terminal-3238643032-r2" x="24.4" y="142" textLength="268.4" clip-path="url(#terminal-3238643032-line-5)">⠀⠀⢸⣿⡟⣱⣿⣿⣿⣿⣿⣿⣿⣿⣿⣿⣷⣄⠀⠀⠀⠀</text><text class="terminal-3238643032-r1" x="1220" y="142" textLength="12.2" clip-path="url(#terminal-3238643032-line-5)">
</text><text class="terminal-3238643032-r2" x="24.4" y="166.4" textLength="268.4" clip-path="url(#terminal-3238643032-line-6)">⠀⠀⣼⣿⣾⢿⣿⣿⣿⣿⣿⣿⣿⣿⣿⣿⣿⣿⣷⣄⠀⠀</text><text class="terminal-3238643032-r1" x="1220" y="166.4" textLength="12.2" clip-path="url(#terminal-3238643032-line-6)">
</text><text class="terminal-3238643032-r2" x="24.4" y="190.8" textLength="268.4" clip-path="url(#terminal-3238643032-line-7)">⠀⢸⡇⣿⣳⠟⠁⠀⠹⣿⣿⣿⣿⣿⣿⣿⣿⣿⣿⣿⣷⠀</text><text class="terminal-3238643032-r1" x="1220" y="190.8" textLength="12.2" clip-path="url(#terminal-3238643032-line-7)">
</text><text class="terminal-3238643032-r2" x="24.4" y="215.2" textLength="268.4" clip-path="url(#terminal-3238643032-line-8)">⠀⢸⣿⡿⠃⠀⠀⠀⠀⠈⠉⠉⠉⠉⠉⠉⠙⠻⢿⣿⣿⠀</text><text class="terminal-3238643032-r1" x="1220" y="215.2" textLength="12.2" clip-path="url(#terminal-3238643032-line-8)">
</text><text class="terminal-3238643032-r2" x="24.4" y="239.6" textLength="268.4" clip-path="url(#terminal-3238643032-line-9)">⠀⠀⠉⠀⠀⡀⠀⠀⠀⠀⠀⠀⠀⠀⠀⠀⠀⠀⠀⠙⢿⠀</text><text class="terminal-3238643032-r1" x="1220" y="239.6" textLength="12.2" clip-path="url(#terminal-3238643032-line-9)">
</text><text class="terminal-3238643032-r2" x="24.4" y="264" textLength="268.4" clip-path="url(#terminal-3238643032-line-10)">⠀⠀⠀⠀⠀⡇⠀⠀⠀⠀⠀⠀⠀⠀⠀⠀⠀⠀⠀⠀⠈⠀</text><text class="terminal-3238643032-r1" x="1220" y="264" textLength="12.2" clip-path="url(#terminal-3238643032-line-10)">
</text><text class="terminal-3238643032-r2" x="24.4" y="288.4" textLength="268.4" clip-path="url(#terminal-3238643032-line-11)">⠀⠀⠀⠀⠀⢿⡀⠀⠀⠀⠀⠀⠀⠀⠀⠀⠀⠀⠀⠀⠀⠀</text><text class="terminal-3238643032-r1" x="1220" y="288.4" textLength="12.2" clip-path="url(#terminal-3238643032-line-11)">
</text><text class="terminal-3238643032-r1" x="1220" y="312.8" textLength="12.2" clip-path="url(#terminal-3238643032-line-12)">
</text><text class="terminal-3238643032-r7" x="24.4" y="337.2" textLength="12.2" clip-path="url(#terminal-3238643032-line-13)">▊</text><text class="terminal-3238643032-r8" x="36.6" y="337.2" textLength="1146.8" clip-path="url(#terminal-3238643032-line-13)">▔▔▔▔▔▔▔▔▔▔▔▔▔▔▔▔▔▔▔▔▔▔▔▔▔▔▔▔▔▔▔▔▔▔▔▔▔▔▔▔▔▔▔▔▔▔▔▔▔▔▔▔▔▔▔▔▔▔▔▔▔▔▔▔▔▔▔▔▔▔▔▔▔▔▔▔▔▔▔▔▔▔▔▔▔▔▔▔▔▔▔▔▔▔</text><text class="terminal-3238643032-r8" x="1183.4" y="337.2" textLength="12.2" clip-path="url(#terminal-3238643032-line-13)">▎</text><text class="terminal-3238643032-r1" x="1220" y="337.2" textLength="12.2" clip-path="url(#terminal-3238643032-line-13)">
</text><text class="terminal-3238643032-r7" x="24.4" y="361.6" textLength="12.2" clip-path="url(#terminal-3238643032-line-14)">▊</text><text class="terminal-3238643032-r9" x="61" y="361.6" textLength="524.6" clip-path="url(#terminal-3238643032-line-14)">jot&#160;a&#160;note&#160;into&#160;the&#160;meeting&#160;(enter&#160;to&#160;save)</text><text class="terminal-3238643032-r8" x="1183.4" y="361.6" textLength="12.2" clip-path="url(#terminal-3238643032-line-14)">▎</text><text class="terminal-3238643032-r1" x="1220" y="361.6" textLength="12.2" clip-path="url(#terminal-3238643032-line-14)">
</text><text class="terminal-3238643032-r7" x="24.4" y="386" textLength="12.2" clip-path="url(#terminal-3238643032-line-15)">▊</text><text class="terminal-3238643032-r8" x="36.6" y="386" textLength="1146.8" clip-path="url(#terminal-3238643032-line-15)">▁▁▁▁▁▁▁▁▁▁▁▁▁▁▁▁▁▁▁▁▁▁▁▁▁▁▁▁▁▁▁▁▁▁▁▁▁▁▁▁▁▁▁▁▁▁▁▁▁▁▁▁▁▁▁▁▁▁▁▁▁▁▁▁▁▁▁▁▁▁▁▁▁▁▁▁▁▁▁▁▁▁▁▁▁▁▁▁▁▁▁▁▁▁</text><text class="terminal-3238643032-r8" x="1183.4" y="386" textLength="12.2" clip-path="url(#terminal-3238643032-line-15)">▎</text><text class="terminal-3238643032-r1" x="1220" y="386" textLength="12.2" clip-path="url(#terminal-3238643032-line-15)">
</text><text class="terminal-3238643032-r11" x="24.4" y="410.4" textLength="12.2" clip-path="url(#terminal-3238643032-line-16)">█</text><text class="terminal-3238643032-r11" x="48.8" y="410.4" textLength="1134.6" clip-path="url(#terminal-3238643032-line-16)">[14:03]&#160;-&#160;Their&#160;intro&#160;is&#160;the&#160;standard&#160;scope-then-anchor&#160;framing;&#160;the&#160;ask&#160;will&#160;follow&#160;the&#160;case</text><text class="terminal-3238643032-r1" x="1220" y="410.4" textLength="12.2" clip-path="url(#terminal-3238643032-line-16)">
</text><text class="terminal-3238643032-r11" x="24.4" y="434.8" textLength="12.2" clip-path="url(#terminal-3238643032-line-17)">█</text><text class="terminal-3238643032-r11" x="48.8" y="434.8" textLength="73.2" clip-path="url(#terminal-3238643032-line-17)">study.</text><text class="terminal-3238643032-r1" x="1220" y="434.8" textLength="12.2" clip-path="url(#terminal-3238643032-line-17)">
</text><text class="terminal-3238643032-r11" x="24.4" y="459.2" textLength="12.2" clip-path="url(#terminal-3238643032-line-18)">█</text><text class="terminal-3238643032-r11" x="48.8" y="459.2" textLength="866.2" clip-path="url(#terminal-3238643032-line-18)">-&#160;Maria&#160;(ecomm&#160;dir)&#160;owns&#160;flows&#160;per&#160;the&#160;brain;&#160;name&#160;her&#160;before&#160;they&#160;ask.</text><text class="terminal-3238643032-r1" x="1220" y="459.2" textLength="12.2" clip-path="url(#terminal-3238643032-line-18)">
</text><text class="terminal-3238643032-r1" x="1220" y="483.6" textLength="12.2" clip-path="url(#terminal-3238643032-line-19)">
</text><text class="terminal-3238643032-r12" x="24.4" y="508" textLength="183" clip-path="url(#terminal-3238643032-line-20)">live&#160;transcript</text><text class="terminal-3238643032-r1" x="1220" y="508" textLength="12.2" clip-path="url(#terminal-3238643032-line-20)">
</text><text class="terminal-3238643032-r8" x="24.4" y="532.4" textLength="12.2" clip-path="url(#terminal-3238643032-line-21)">█</text><text class="terminal-3238643032-r13" x="48.8" y="532.4" textLength="97.6" clip-path="url(#terminal-3238643032-line-21)">14:02:11</text><text class="terminal-3238643032-r14" x="146.4" y="532.4" textLength="1012.6" clip-path="url(#terminal-3238643032-line-21)">&#160;&#160;Thanks&#160;for&#160;making&#160;time.&#160;I&#160;lead&#160;partnerships&#160;at&#160;Meridian,&#160;we&#160;work&#160;with&#160;about&#160;forty</text><text class="terminal-3238643032-r1" x="1220" y="532.4" textLength="12.2" clip-path="url(#terminal-3238643032-line-21)">
</text><text class="terminal-3238643032-r8" x="24.4" y="556.8" textLength="12.2" clip-path="url(#terminal-3238643032-line-22)">█</text><text class="terminal-3238643032-r14" x="48.8" y="556.8" textLength="292.8" clip-path="url(#terminal-3238643032-line-22)">DTC&#160;brands&#160;on&#160;retention.</text><text class="terminal-3238643032-r1" x="1220" y="556.8" textLength="12.2" clip-path="url(#terminal-3238643032-line-22)">
</text><text class="terminal-3238643032-r8" x="24.4" y="581.2" textLength="12.2" clip-path="url(#terminal-3238643032-line-23)">█</text><text class="terminal-3238643032-r13" x="48.8" y="581.2" textLength="97.6" clip-path="url(#terminal-3238643032-line-23)">14:02:30</text><text class="terminal-3238643032-r14" x="146.4" y="581.2" textLength="878.4" clip-path="url(#terminal-3238643032-line-23)">&#160;&#160;Before&#160;we&#160;dive&#160;in,&#160;how&#160;are&#160;you&#160;currently&#160;handling&#160;post-purchase&#160;flows?</text><text class="terminal-3238643032-r1" x="1220" y="581.2" textLength="12.2" clip-path="url(#terminal-3238643032-line-23)">
</text><text class="terminal-3238643032-r8" x="24.4" y="605.6" textLength="12.2" clip-path="url(#terminal-3238643032-line-24)">█</text><text class="terminal-3238643032-r13" x="48.8" y="605.6" textLength="97.6" clip-path="url(#terminal-3238643032-line-24)">14:02:48</text><text class="terminal-3238643032-r14" x="146.4" y="605.6" textLength="902.8" clip-path="url(#terminal-3238643032-line-24)">&#160;&#160;We&#160;run&#160;Klaviyo&#160;with&#160;the&#160;basics&#160;today,&#160;mostly&#160;order&#160;and&#160;shipping&#160;updates.</text><text class="terminal-3238643032-r1" x="1220" y="605.6" textLength="12.2" clip-path="url(#terminal-3238643032-line-24)">
</text><text class="terminal-3238643032-r8" x="24.4" y="630" textLength="12.2" clip-path="url(#terminal-3238643032-line-25)">█</text><text class="terminal-3238643032-r13" x="48.8" y="630" textLength="97.6" clip-path="url(#terminal-3238643032-line-25)">14:03:05</text><text class="terminal-3238643032-r14" x="146.4" y="630" textLength="634.4" clip-path="url(#terminal-3238643032-line-25)">&#160;&#160;Got&#160;it.&#160;And&#160;who&#160;owns&#160;that&#160;internally&#160;on&#160;your&#160;side?</text><text class="terminal-3238643032-r1" x="1220" y="630" textLength="12.2" clip-path="url(#terminal-3238643032-line-25)">
</text><text class="terminal-3238643032-r8" x="24.4" y="654.4" textLength="12.2" clip-path="url(#terminal-3238643032-line-26)">█</text><text class="terminal-3238643032-r15" x="48.8" y="654.4" textLength="854" clip-path="url(#terminal-3238643032-line-26)">so&#160;if&#160;we&#160;moved&#160;the&#160;reporting&#160;piece&#160;up&#160;front,&#160;would&#160;that&#160;change&#160;how&#160;...</text><text class="terminal-3238643032-r1" x="1220" y="654.4" textLength="12.2" clip-path="url(#terminal-3238643032-line-26)">
</text><text class="terminal-3238643032-r8" x="24.4" y="678.8" textLength="12.2" clip-path="url(#terminal-3238643032-line-27)">█</text><text class="terminal-3238643032-r1" x="1220" y="678.8" textLength="12.2" clip-path="url(#terminal-3238643032-line-27)">
</text><text class="terminal-3238643032-r8" x="24.4" y="703.2" textLength="12.2" clip-path="url(#terminal-3238643032-line-28)">█</text><text class="terminal-3238643032-r1" x="1220" y="703.2" textLength="12.2" clip-path="url(#terminal-3238643032-line-28)">
</text><text class="terminal-3238643032-r8" x="24.4" y="727.6" textLength="12.2" clip-path="url(#terminal-3238643032-line-29)">█</text><text class="terminal-3238643032-r1" x="1220" y="727.6" textLength="12.2" clip-path="url(#terminal-3238643032-line-29)">
</text><text class="terminal-3238643032-r1" x="1220" y="752" textLength="12.2" clip-path="url(#terminal-3238643032-line-30)">
</text><text class="terminal-3238643032-r16" x="24.4" y="776.4" textLength="97.6" clip-path="url(#terminal-3238643032-line-31)">meetings</text><text class="terminal-3238643032-r1" x="1220" y="776.4" textLength="12.2" clip-path="url(#terminal-3238643032-line-31)">
</text><text class="terminal-3238643032-r17" x="24.4" y="800.8" textLength="353.8" clip-path="url(#terminal-3238643032-line-32)">Outbound&#160;and&#160;PE&#160;OS&#160;brainstorm</text><text class="terminal-3238643032-r1" x="1220" y="800.8" textLength="12.2" clip-path="url(#terminal-3238643032-line-32)">
</text><text class="terminal-3238643032-r12" x="24.4" y="825.2" textLength="427" clip-path="url(#terminal-3238643032-line-33)">2026-07-06&#160;16:01&#160;·&#160;13&#160;min&#160;·&#160;Firefox</text><text class="terminal-3238643032-r1" x="1220" y="825.2" textLength="12.2" clip-path="url(#terminal-3238643032-line-33)">
</text><text class="terminal-3238643032-r18" x="1159" y="849.6" textLength="24.4" clip-path="url(#terminal-3238643032-line-34)">▁▁</text><text class="terminal-3238643032-r1" x="1220" y="849.6" textLength="12.2" clip-path="url(#terminal-3238643032-line-34)">
</text><text class="terminal-3238643032-r19" x="24.4" y="874" textLength="170.8" clip-path="url(#terminal-3238643032-line-35)">Weekly&#160;standup</text><text class="terminal-3238643032-r1" x="1220" y="874" textLength="12.2" clip-path="url(#terminal-3238643032-line-35)">
</text><text class="terminal-3238643032-r4" x="24.4" y="898.4" textLength="390.4" clip-path="url(#terminal-3238643032-line-36)">2026-07-05&#160;14:00&#160;·&#160;28&#160;min&#160;·&#160;Zoom</text><text class="terminal-3238643032-r1" x="1220" y="898.4" textLength="12.2" clip-path="url(#terminal-3238643032-line-36)">
</text><text class="terminal-3238643032-r20" x="0" y="922.8" textLength="36.6" clip-path="url(#terminal-3238643032-line-37)">&#160;e&#160;</text><text class="terminal-3238643032-r10" x="36.6" y="922.8" textLength="85.4" clip-path="url(#terminal-3238643032-line-37)">editor&#160;</text><text class="terminal-3238643032-r20" x="122" y="922.8" textLength="36.6" clip-path="url(#terminal-3238643032-line-37)">&#160;n&#160;</text><text class="terminal-3238643032-r10" x="158.6" y="922.8" textLength="48.8" clip-path="url(#terminal-3238643032-line-37)">jot&#160;</text><text class="terminal-3238643032-r20" x="207.4" y="922.8" textLength="36.6" clip-path="url(#terminal-3238643032-line-37)">&#160;a&#160;</text><text class="terminal-3238643032-r10" x="244" y="922.8" textLength="48.8" clip-path="url(#terminal-3238643032-line-37)">ask&#160;</text><text class="terminal-3238643032-r20" x="292.8" y="922.8" textLength="36.6" clip-path="url(#terminal-3238643032-line-37)">&#160;r&#160;</text><text class="terminal-3238643032-r10" x="329.4" y="922.8" textLength="146.4" clip-path="url(#terminal-3238643032-line-37)">record/stop&#160;</text><text class="terminal-3238643032-r20" x="475.8" y="922.8" textLength="36.6" clip-path="url(#terminal-3238643032-line-37)">&#160;d&#160;</text><text class="terminal-3238643032-r10" x="512.4" y="922.8" textLength="85.4" clip-path="url(#terminal-3238643032-line-37)">delete&#160;</text><text class="terminal-3238643032-r20" x="597.8" y="922.8" textLength="36.6" clip-path="url(#terminal-3238643032-line-37)">&#160;q&#160;</text><text class="terminal-3238643032-r10" x="634.4" y="922.8" textLength="61" clip-path="url(#terminal-3238643032-line-37)">quit&#160;</text><text class="terminal-3238643032-r21" x="1073.6" y="922.8" textLength="12.2" clip-path="url(#terminal-3238643032-line-37)">▏</text><text class="terminal-3238643032-r20" x="1085.8" y="922.8" textLength="24.4" clip-path="url(#terminal-3238643032-line-37)">^p</text><text class="terminal-3238643032-r10" x="1110.2" y="922.8" textLength="97.6" clip-path="url(#terminal-3238643032-line-37)">&#160;palette</text>
    </g>
    </g>
</svg>
